<svg width="66" height="28" viewBox="0 0 66 28" fill="none" xmlns="http://www.w3.org/2000/svg">
<rect x="0.606812" width="65" height="27.9339" rx="5" fill="#E20010"/>
<path d="M32.1695 17.2379C31.9941 17.3618 31.6347 17.4679 31.2444 17.4679C30.5278 17.4679 30.2054 16.9177 30.2188 16.2777C30.2301 15.7472 30.5606 15.1461 31.4556 15.1461L32.1696 15.1457V17.2379H32.1695ZM31.4327 11.3551C30.5824 11.3551 29.8171 11.5955 29.0307 11.986L28.83 12.0895L29.3087 13.1579L29.5786 13.0303C30.1356 12.7811 30.7289 12.614 31.2623 12.6363C31.908 12.6632 32.1722 12.9592 32.1722 13.577V13.9395H31.1164C29.4192 13.9395 28.3631 14.8391 28.3326 16.236C28.3326 17.5634 29.4393 18.7061 30.978 18.7061C32.2196 18.7061 33.2715 18.3033 33.9803 17.5933V13.8055C33.9803 11.961 32.6636 11.3551 31.4327 11.3551ZM56.6393 17.4632V18.5834C56.6393 18.5834 56.2632 18.6552 55.9585 18.6552C54.5359 18.6552 53.6866 17.9851 53.6866 16.4201V9.81984L55.473 9.51554V16.5357C55.473 17.0781 55.6288 17.4027 56.3707 17.4605C56.472 17.4679 56.6394 17.4631 56.6394 17.4631L56.6393 17.4632ZM48.8042 14.1305C48.8343 13.4431 49.1205 12.7365 49.8241 12.7365C50.616 12.7365 50.7328 13.5956 50.7328 14.1305H48.8042ZM50.2093 17.455C49.7209 17.455 49.3913 17.2948 49.1751 17.0616C48.8545 16.7154 48.7123 16.0035 48.751 15.2466H52.5929V15.0701C52.5586 12.5552 51.7012 11.4095 49.8242 11.4095C47.7293 11.4095 46.9134 13.3367 46.8981 15.1474C46.8851 16.293 47.3171 17.4463 48.1071 18.1033C48.5882 18.5029 49.2553 18.7244 50.0286 18.7244C50.4498 18.7244 50.8902 18.6617 51.2917 18.5374C52.0625 18.2986 52.6312 17.886 52.6312 17.886L52.1288 16.852C52.0383 16.9203 51.269 17.455 50.2094 17.455H50.2093ZM46.2715 17.4697V18.5738C46.2715 18.5738 45.942 18.6392 45.5923 18.6392C44.1373 18.6392 43.269 17.9366 43.269 16.4512V9.81868L45.0956 9.52528V11.4849H46.271V12.7947H45.0956V16.5267C45.0956 17.0153 45.2465 17.4375 46.0125 17.4643C46.1161 17.468 46.2522 17.468 46.2715 17.4698V17.4697ZM35.3145 11.7718L37.0966 11.481V18.5776H35.3145V11.7718ZM36.2238 8.64535C36.5338 8.64535 36.8206 8.76609 37.0313 8.98497C37.1338 9.09086 37.214 9.21632 37.2671 9.35387C37.3202 9.49141 37.345 9.63823 37.3401 9.78557C37.3401 10.4168 36.8429 10.9132 36.2079 10.9132C35.5742 10.9132 35.0762 10.4153 35.0762 9.77817C35.0762 9.15399 35.5912 8.64535 36.2238 8.64535ZM42.7888 11.5888L42.286 12.7161C42.286 12.7161 41.9989 12.6242 41.5567 12.6422C41.0784 12.6612 40.5754 12.8636 40.3386 13.0946V18.5826H38.5203L38.5216 12.7528C39.6042 11.602 40.8054 11.3728 41.588 11.3728C42.1283 11.3728 42.5934 11.4925 42.7888 11.5888ZM20.0524 5.90912V5.92885H19.8946V5.94858H19.7171V5.96832H19.5593V5.98805H19.4212V6.00765H19.3225V6.02739H19.224V6.04712H19.1253V6.06685H19.0268V6.08658H18.9281V6.10632H18.8296V6.12605H18.7705V6.14578H18.6916V6.16551H18.6127V6.18525H18.5339V6.20485H18.4747V6.22458H18.3959V6.24432H18.3169V6.26405H18.238V6.28378H18.1789V6.30351H18.1197V6.32325H18.0605V6.34298H18.0015V6.36271H17.9423V6.38245H17.8831V6.40205H17.8239V6.42178H17.7648V6.44151H17.7056V6.46125H17.6464V6.48098H17.5873V6.50071H17.5283V6.52045H17.4691V6.54018H17.41V6.55991H17.3705V6.57964H17.3113V6.59925H17.2719V6.61898H17.2128V6.63871H17.1733V6.65845H17.1141V6.67818H17.0549V6.69791H17.0156V6.71764H16.9564V6.73738H16.9169V6.75711H16.8577V6.77684H16.8184V6.79644H16.7592V6.81618H16.7197V6.83591H16.6803V6.85564H16.6409V6.87538H16.5817V6.89511H16.5423V6.91484H16.5028V6.93457H16.4633V6.95431H16.424V6.97404H16.3648V6.99364H16.3253V7.01338H16.2859V7.03311H16.2465V7.05284H16.2071V7.07257H16.1479V7.09231H16.1084V7.11204H16.069V7.13177H16.0296V7.1515H15.9902V7.17124H15.9507V7.19084H15.9112V7.21057H15.8719V7.23031H15.8324V7.25004H15.793V7.26977H15.7535V7.2895H15.714V7.30924H15.6747V7.32897H15.6352V7.3487H15.5958V7.36844H15.5563V7.38804H15.5168V7.40777H15.4971V7.4275H15.4578V7.44724H15.4183V7.46697H15.3788V7.4867H15.3394V7.50644H15.2999V7.52617H15.2606V7.5459H15.2408V7.5655H15.2014V7.58524H15.1619V7.60497H15.1224V7.6247H15.1027V7.64443H15.0634V7.66417H15.0239V7.6839H14.9844V7.70363H14.9647V7.72337H14.9252V7.7431H14.8859V7.7627H14.8464V7.78243H14.807V7.80217H14.7872V7.8219H14.7478V7.84163H14.7083V7.86137H14.669V7.8811H14.6492V7.90083H14.6098V7.92056H14.59V7.9403H14.5506V7.9599H14.5308V7.97963H14.4915V7.99937H14.452V8.0191H14.4323V8.03883H14.3928V8.05856H14.3731V8.0783H14.3336V8.09803H14.2943V8.11776H14.2746V8.1375H14.2351V8.1571H14.2154V8.17683H14.1759V8.19656H14.1562V8.2163H14.1168V8.23603H14.0774V8.25576H14.0576V8.27549H14.0182V8.29523H13.9984V8.31496H13.959V8.33469H13.9392V8.3543H13.8999V8.37403H13.8802V8.39376H13.8604V8.41349H13.821V8.43323H13.8012V8.45296H13.7618V8.47269H13.742V8.49243H13.7027V8.51216H13.683V8.53189H13.6632V8.55149H13.6238V8.57123H13.604V8.59096H13.5646V8.61069H13.5448V8.63042H13.5055V8.65016H13.4858V8.66989H13.466V8.68962H13.4266V8.70936H13.4068V8.72909H13.3674V8.74869H13.3476V8.76842H13.328V8.78816H13.2886V8.80789H13.2688V8.82762H13.2491V8.84736H13.2096V8.86709H13.1899V8.88682H13.1702V8.90655H13.1504V8.92629H13.1111V8.94589H13.0914V8.96562H13.0716V8.98536H13.0322V9.00509H13.0124V9.02482H12.9927V9.04455H12.973V9.06429H12.9336V9.08402H12.9139V9.10375H12.8942V9.12336H12.8547V9.14309H12.835V9.16282H12.8153V9.18255H12.7758V9.20229H12.7562V9.22202H12.7364V9.24175H12.7167V9.26148H12.697V9.28122H12.6773V9.30095H12.6378V9.32055H12.6181V9.34029H12.5983V9.36002H12.5786V9.37975H12.559V9.39948H12.5393V9.41922H12.4998V9.43895H12.4801V9.45868H12.4603V9.47842H12.4406V9.49815H12.4209V9.51775H12.4011V9.53748H12.3618V9.55722H12.3421V9.57695H12.3223V9.59668H12.3026V9.61641H12.2829V9.63615H12.2631V9.65588H12.2237V9.67561H12.2039V9.69535H12.1842V9.71495H12.1646V9.73468H12.1449V9.75441H12.1251V9.77415H12.1054V9.79388H12.0857V9.81361H12.0659V9.83335H12.0462V9.85308H12.0265V9.87281H12.0067V9.89254H11.987V9.91215H11.9674V9.93188H11.9477V9.95161H11.9279V9.97135H11.9082V9.99108H11.8885V10.0108H11.8687V10.0305H11.849V10.0503H11.8293V10.07H11.7898V10.0897H11.7702V10.1093H11.7505V10.1291H11.7307V10.1488H11.711V10.1685H11.6913V10.1883H11.6715V10.208H11.6518V10.2277H11.6321V10.2475H11.6123V10.2672H11.5926V10.3065H11.573V10.3263H11.5533V10.346H11.5335V10.3657H11.5138V10.3855H11.4941V10.4052H11.4743V10.4249H11.4546V10.4447H11.4349V10.4644H11.4151V10.4841H11.3954V10.5235H11.3758V10.5432H11.3561V10.5629H11.3363V10.5827H11.3166V10.6024H11.2969V10.6221H11.2771V10.6419H11.2574V10.6616H11.2377V10.6812H11.2179V10.7207H11.1983V10.7404H11.1786V10.7601H11.1589V10.7799H11.1391V10.7996H11.1194V10.8193H11.0997V10.8588H11.0799V10.8784H11.0602V10.8981H11.0405V10.9376H11.0207V10.9573H11.0011V10.9771H10.9814V10.9968H10.9617V11.0363H10.9419V11.056H10.9222V11.0756H10.9025V11.1151H10.8827V11.1348H10.863V11.1545H10.8433V11.1743H10.8235V11.2137H10.8039V11.2335H10.7841V11.2532H10.7643V11.2925H10.7446V11.3123H10.7249V11.332H10.7051V11.3715H10.6854V11.3912H10.6659V11.4307H10.6462V11.4504H10.6265V11.47H10.6069V11.5095H10.5871V11.5292H10.5673V11.5687H10.5475V11.5884H10.5278V11.6279H10.5081V11.6672H10.4883V11.6869H10.4686V11.7264H10.4489V11.7461H10.4291V11.7856H10.4095V11.8251H10.3898V11.8448H10.3699V11.8841H10.3502V11.9039H10.3305V11.9433H10.3107V11.9828H10.291V12.0223H10.2713V12.0616H10.2518V12.0813H10.2321V12.1208H10.2125V12.1603H10.1927V12.1997H10.173V12.2391H10.1531V12.2785H10.1334V12.318H10.1137V12.3575H10.0939V12.3969H10.0742V12.4363H10.0545V12.4955H10.0347V12.5349H10.0151V12.5744H9.99541V12.6335H9.97568V12.6729H9.95581V12.7321H9.93608V12.7913H9.91635V12.8307H9.89662V12.9096H9.87688V12.9688H9.85728V13.0278H9.83768V13.1068H9.81794V13.2054H9.79821V13.2842H9.77848V13.4222H9.75875V13.6589H9.73901V13.8758H9.75875V14.0732H9.77848V14.1717H9.79821V14.2505H9.81794V14.3294H9.83755V14.3885H9.85728V14.4477H9.87701V14.5069H9.89675V14.5464H9.91648V14.5857H9.93621V14.6252H9.95594V14.6646H9.97568V14.7041H9.99541V14.7436H10.0151V14.7829H10.0347V14.8026H10.0545V14.8421H10.0742V14.8618H10.0939V14.9013H10.1137V14.921H10.1334V14.9605H10.1531V14.9801H10.1729V14.9998H10.1926V15.0196H10.2123V15.0393H10.2319V15.059H10.2517V15.0788H10.2714V15.0985H10.2911V15.1182H10.3109V15.138H10.3306V15.1577H10.3503V15.1773H10.3701V15.197H10.3898V15.2168H10.4095V15.2365H10.4291V15.2562H10.4489V15.276H10.4686V15.2957H10.4883V15.3154H10.5081V15.3352H10.5475V15.3548H10.5673V15.3745H10.6067V15.3942H10.6263V15.414H10.6658V15.4337H10.6855V15.4534H10.725V15.4732H10.7447V15.4929H10.7842V15.5126H10.8039V15.5324H10.8433V15.552H10.863V15.5717H10.9025V15.5914H10.9419V15.6112H11.0011V15.6309H11.0405V15.6506H11.0799V15.6704H11.1391V15.6901H11.1786V15.7098H11.2179V15.7296H11.2969V15.7492H11.3955V15.7689H11.4941V15.7886H11.5927V15.8084H12.0857V15.7886H12.2237V15.7689H12.3421V15.7492H12.4209V15.7296H12.4998V15.7098H12.559V15.6901H12.6181V15.6704H12.697V15.6506H12.7562V15.6309H12.7955V15.6112H12.8547V15.5914H12.8942V15.5717H12.9336V15.552H12.9927V15.5324H13.0322V15.5126H13.0716V15.4929H13.1111V15.4732H13.1504V15.4534H13.1899V15.4337H13.2294V15.414H13.2688V15.3942H13.3083V15.3745H13.3476V15.3548H13.3871V15.3352H13.4266V15.3154H13.466V15.2957H13.4858V15.276H13.5252V15.2562H13.5448V15.2365H13.5843V15.2168H13.6238V15.197H13.6435V15.1773H13.683V15.1577H13.7224V15.138H13.742V15.1182H13.7815V15.0985H13.8012V15.0788H13.8407V15.059H13.8604V15.0393H13.8999V15.0196H13.9196V14.9998H13.959V14.9801H13.9787V14.9605H14.0182V14.9408H14.0379V14.921H14.0774V14.9013H14.0971V14.8816H14.1364V14.8618H14.1562V14.8421H14.1759V14.8224H14.2154V14.8026H14.2351V14.7829H14.2548V14.7633H14.2943V14.7436H14.314V14.7238H14.3534V14.7041H14.3731V14.6844H14.3928V14.6646H14.4323V14.6449H14.452V14.6252H14.4718V14.6054H14.5111V14.5857H14.5308V14.5661H14.5506V14.5464H14.59V14.5266H14.6098V14.5069H14.6295V14.4872H14.669V14.4674H14.6887V14.4477H14.7083V14.428H14.7478V14.4082H14.7675V14.3885H14.7872V14.3689H14.807V14.3492H14.8464V14.3294H14.8662V14.3097H14.8859V14.29H14.9252V14.2702H14.945V14.2505H14.9647V14.2308H15.0042V14.211H15.0239V14.1913H15.0436V14.1717H15.0634V14.152H15.1027V14.1322H15.1224V14.1125H15.1422V14.0928H15.1816V14.073H15.2014V14.0533H15.2211V14.0336H15.2606V14.0138H15.2803V13.9941H15.2999V13.9745H15.3394V13.9548H15.3591V13.935H15.3788V13.9153H15.4183V13.8956H15.438V13.8758H15.4578V13.8561H15.4971V13.8364H15.5168V13.8166H15.5563V13.7969H15.576V13.7773H15.5958V13.7576H15.6352V13.7378H15.655V13.7181H15.6943V13.6984H15.714V13.6786H15.7535V13.6589H15.7732V13.6392H15.8127V13.6194H15.8324V13.5998H15.8719V13.5801H15.8915V13.5604H15.9112V13.5406H15.9507V13.5209H15.9704V13.5012H16.0099V13.4814H16.0296V13.4617H16.069V13.442H16.0887V13.4222H16.1282V13.4026H16.1479V13.3829H16.1873V13.3632H16.2071V13.3434H16.2465V13.3237H16.2662V13.304H16.3056V13.2842H16.3253V13.2645H16.3648V13.2448H16.3845V13.225H16.424V13.2054H16.4437V13.1857H16.4633V13.166H16.5028V13.1462H16.5225V13.1265H16.562V13.1068H16.5817V13.087H16.6212V13.0673H16.6409V13.0476H16.6803V13.0278H16.7V13.0082H16.7395V12.9885H16.7592V12.9688H16.7987V12.949H16.8184V12.9293H16.8577V12.9096H16.8775V12.8898H16.9169V12.8701H16.9367V12.8504H16.9761V12.8307H16.9959V12.811H17.0353V12.7913H17.0549V12.7716H17.0944V12.7519H17.1141V12.7321H17.1536V12.7124H17.1733V12.6927H17.2128V12.6729H17.2325V12.6532H17.2719V12.6335H17.2916V12.6139H17.3311V12.5941H17.3508V12.5744H17.3903V12.5547H17.41V12.5349H17.4493V12.5152H17.4691V12.4955H17.5085V12.4757H17.5283V12.456H17.5677V12.4363H17.6072V12.4167H17.6268V12.3969H17.6663V12.3772H17.686V12.3575H17.7255V12.3377H17.7452V12.318H17.7847V12.2983H17.8044V12.2785H17.8437V12.2588H17.8635V12.2391H17.9029V12.2195H17.9424V12.1997H17.9621V12.18H18.0016V12.1603H18.0212V12.1405H18.0607V12.1208H18.1001V12.1011H18.1199V12.0813H18.1593V12.0616H18.1791V12.042H18.2184V12.0223H18.2381V12.0025H18.2776V11.9828H18.3171V11.9631H18.3368V11.9433H18.3763V11.9236H18.4156V11.9039H18.4353V11.8841H18.4748V11.8644H18.5143V11.8448H18.534V11.8251H18.5735V11.8053H18.6128V11.7856H18.6325V11.7659H18.672V11.7461H18.7115V11.7264H18.7312V11.7067H18.7707V11.6869H18.81V11.6672H18.8297V11.6476H18.8692V11.6279H18.9087V11.6081H18.9481V11.5884H18.9679V11.5687H19.0072V11.5489H19.0467V11.5292H19.0861V11.5095H19.1059V11.4897H19.1453V11.47H19.1847V11.4504H19.2241V11.4307H19.2636V11.4109H19.2833V11.3912H19.3228V11.3715H19.3623V11.3517H19.4016V11.332H19.4411V11.3123H19.4805V11.2925H19.52V11.2728H19.5594V11.2532H19.5988V11.2335H19.6382V11.2137H19.6777V11.194H19.7172V11.1743H19.7566V11.1545H19.7762V11.1348H19.8354V11.1151H19.8749V11.0953H19.9144V11.0756H19.9538V11.056H19.9932V11.0363H20.0524V11.0165H20.0918V10.9968H20.1313V10.9771H20.1706V10.9573H20.2101V10.9376H20.2693V10.9179H20.3088V10.8981H20.3678V10.8784H20.4073V10.8588H20.4665V10.8391H20.5257V10.8193H20.565V10.7996H20.6242V10.7799H20.6637V10.7601H20.7229V10.7404H20.8017V10.7207H20.8609V10.7009H20.9397V10.6812H20.9989V10.6616H21.0778V10.6419H21.1566V10.6221H21.2553V10.6024H21.3736V10.5827H21.4722V10.5629H21.8074V10.5432H21.8469V10.5629H22.0244V10.5827H22.1821V10.6024H22.2413V10.6221H22.3004V10.6419H22.3596V10.6616H22.399V10.6812H22.4582V10.7009H22.4976V10.7207H22.537V10.7404H22.5568V10.7601H22.5962V10.7799H22.6357V10.7996H22.6554V10.8193H22.6948V10.8391H22.7145V10.8588H22.754V10.8784H22.7737V10.8981H22.7934V10.9179H22.8132V10.9376H22.8329V10.9573H22.8526V10.9771H22.8723V10.9968H22.892V11.0165H22.9117V11.0363H22.9314V11.056H22.9512V11.0756H22.9709V11.1151H22.9906V11.1348H23.0103V11.1545H23.0301V11.194H23.0498V11.2137H23.0695V11.2532H23.0892V11.2728H23.1089V11.3123H23.1286V11.3517H23.1483V11.3715H23.1681V11.4109H23.1878V11.4504H23.2075V11.4897H23.2273V11.5292H23.247V11.5884H23.2667V11.6279H23.2863V11.6869H23.3061V11.7264H23.3258V11.7856H23.3455V11.8448H23.3653V11.9236H23.385V11.9828H23.4047V12.0616H23.4245V12.18H23.4442V12.2787H23.4639V12.4955H23.4835V12.9885H23.4639V13.1462H23.4442V13.3237H23.4245V13.4224H23.4047V13.5209H23.385V13.5998H23.3653V13.6984H23.3455V13.7773H23.3258V13.8561H23.3061V13.9153H23.2863V13.9745H23.2667V14.0336H23.247V14.1125H23.2273V14.1717H23.2075V14.2308H23.1878V14.29H23.1681V14.3294H23.1483V14.3885H23.1286V14.428H23.1089V14.4872H23.0892V14.5266H23.0695V14.5857H23.0498V14.6252H23.0301V14.6844H23.0103V14.7238H22.9906V14.7633H22.9709V14.8026H22.9512V14.8421H22.9314V14.9013H22.9117V14.9408H22.892V14.9801H22.8723V15.0196H22.8526V15.059H22.8329V15.0788H22.8132V15.1182H22.7934V15.1577H22.7737V15.197H22.754V15.2365H22.7342V15.2562H22.7145V15.2957H22.6948V15.3352H22.6752V15.3548H22.6554V15.3942H22.6357V15.4337H22.616V15.4534H22.5962V15.4929H22.5765V15.5324H22.5568V15.552H22.537V15.5914H22.5173V15.6112H22.4976V15.6506H22.478V15.6704H22.4582V15.7098H22.4385V15.7296H22.4188V15.7689H22.399V15.7886H22.3793V15.8281H22.3596V15.8478H22.3398V15.8873H22.3201V15.907H22.3004V15.9268H22.2808V15.9661H22.261V15.9858H22.2413V16.0056H22.2216V16.045H22.2018V16.0647H22.1821V16.0845H22.1624V16.1239H22.1426V16.1436H22.1229V16.183H22.1033V16.2028H22.0836V16.2225H22.0638V16.2422H22.0441V16.2817H22.0244V16.3014H22.0046V16.3211H21.9849V16.3407H21.9652V16.3802H21.9454V16.3999H21.9257V16.4197H21.9061V16.4394H21.8864V16.4789H21.8666V16.4986H21.8469V16.5183H21.8272V16.5379H21.8074V16.5577H21.7877V16.5971H21.768V16.6169H21.7482V16.6366H21.7285V16.6563H21.7089V16.6761H21.6892V16.7155H21.6694V16.7351H21.6497V16.7549H21.63V16.7746H21.6102V16.7943H21.5905V16.8141H21.5708V16.8338H21.551V16.8535H21.5313V16.893H21.5117V16.9126H21.492V16.9323H21.4722V16.9521H21.4525V16.9718H21.4328V16.9915H21.413V17.0113H21.3933V17.031H21.3736V17.0507H21.3538V17.0902H21.3341V17.1098H21.3145V17.1295H21.2948V17.1493H21.275V17.169H21.2553V17.1887H21.2356V17.2085H21.2158V17.2282H21.1961V17.2479H21.1764V17.2677H21.1566V17.2874H21.1369V17.307H21.1173V17.3267H21.0976V17.3465H21.0778V17.3662H21.0581V17.3859H21.0384V17.4057H21.0186V17.4254H20.9989V17.4451H20.9792V17.4649H20.9594V17.4846H20.9397V17.5042H20.9201V17.5239H20.9004V17.5437H20.8806V17.5634H20.8609V17.5831H20.8412V17.6029H20.8214V17.6226H20.8017V17.6423H20.782V17.6621H20.7622V17.6818H20.7425V17.7014H20.7229V17.7211H20.7032V17.7409H20.6834V17.7606H20.6637V17.7803H20.644V17.8001H20.6242V17.8198H20.6045V17.8395H20.5848V17.8593H20.565V17.879H20.5454V17.8986H20.5257V17.9183H20.4862V17.9381H20.4665V17.9578H20.4468V17.9775H20.427V17.9973H20.4073V18.017H20.3876V18.0367H20.3678V18.0565H20.3482V18.0762H20.3285V18.0958H20.3088V18.1155H20.2693V18.1353H20.2496V18.155H20.2298V18.1747H20.2101V18.1945H20.1904V18.2142H20.1706V18.2339H20.151V18.2537H20.1313V18.2734H20.0918V18.293H20.0721V18.3127H20.0524V18.3325H20.0326V18.3522H20.0129V18.3719H19.9932V18.3917H19.9734V18.4114H19.9341V18.4311H19.9144V18.4509H19.8946V18.4705H19.8749V18.4902H19.8552V18.5099H19.8157V18.5297H19.796V18.5494H19.7762V18.5691H19.7566V18.5889H19.7369V18.6086H19.6974V18.6283H19.6777V18.6481H19.658V18.6677H19.6382V18.6874H19.6185V18.7071H19.5791V18.7269H19.5594V18.7466H19.5397V18.7663H19.52V18.7861H19.4805V18.8058H19.4608V18.8255H19.4411V18.8453H19.4213V18.8649H19.3819V18.8846H19.3623V18.9043H19.3425V18.9241H19.3228V18.9438H19.2833V18.9635H19.2636V18.9833H19.2439V19.003H19.2241V19.0227H19.1847V19.0425H19.1651V19.0621H19.1453V19.0818H19.1059V19.1015H19.0861V19.1213H19.0664V19.141H19.0269V19.1607H19.0072V19.1805H18.9876V19.2002H18.9481V19.2199H18.9284V19.2397H18.9087V19.2593H18.8692V19.279H18.8495V19.2987H18.8297V19.3185H18.7904V19.3382H18.7707V19.3579H18.7509V19.3777H18.7115V19.3974H18.6917V19.4171H18.6523V19.4368H18.6325V19.4565H18.6128V19.4762H18.5735V19.4959H18.5537V19.5156H18.5143V19.5354H18.4945V19.5551H18.4551V19.5748H18.4353V19.5946H18.4156V19.6143H18.3763V19.634H18.3565V19.6537H18.3171V19.6734H18.2973V19.6931H18.2579V19.7128H18.2381V19.7326H18.1988V19.7523H18.1791V19.772H18.1396V19.7918H18.1199V19.8115H18.0804V19.8312H18.0607V19.8508H18.0212V19.8706H18.0016V19.8903H17.9621V19.91H17.9227V19.9298H17.9029V19.9495H17.8635V19.9692H17.8437V19.989H17.8044V20.0087H17.7649V20.0283H17.7452V20.048H17.7057V20.0678H17.686V20.0875H17.6465V20.1072H17.6072V20.127H17.5677V20.1467H17.548V20.1664H17.5085V20.1862H17.4691V20.2059H17.4493V20.2255H17.41V20.2452H17.3705V20.265H17.3311V20.2847H17.3113V20.3044H17.2719V20.3242H17.2325V20.3439H17.1931V20.3636H17.1536V20.3834H17.1141V20.4031H17.0944V20.4227H17.0549V20.4424H17.0156V20.4622H16.9761V20.4819H16.9367V20.5016H16.8972V20.5214H16.8577V20.5411H16.8184V20.5608H16.7789V20.5806H16.7197V20.6003H16.6803V20.6199H16.6409V20.6396H16.6015V20.6594H16.562V20.6791H16.5028V20.6988H16.4633V20.7186H16.4043V20.7383H16.3648V20.758H16.3056V20.7778H16.2465V20.7975H16.2071V20.8171H16.1282V20.8368H16.069V20.8566H16.0099V20.8763H15.931V20.896H15.8323V20.9158H15.6943V20.9355H15.4971V20.9158H15.4183V20.896H15.3591V20.8763H15.3196V20.8566H15.2803V20.8368H15.2606V20.8171H15.2408V20.7975H15.2211V20.7778H15.2014V20.7383H15.1816V20.6988H15.1619V20.6594H15.1422V20.6003H15.1224V20.403H15.1422V20.3044H15.1619V20.2452H15.1816V20.1862H15.2014V20.1467H15.2211V20.1072H15.2408V20.0678H15.2606V20.0283H15.2803V19.989H15.2999V19.9495H15.3196V19.9298H15.3394V19.8903H15.3591V19.8508H15.3788V19.8312H15.3986V19.7918H15.4183V19.772H15.438V19.7326H15.4578V19.7128H15.4775V19.6734H15.4971V19.6537H15.5168V19.634H15.5366V19.5946H15.5563V19.5748H15.576V19.5551H15.5958V19.5156H15.6155V19.4959H15.6352V19.4762H15.655V19.4368H15.6747V19.4171H15.6943V19.3974H15.714V19.3777H15.7338V19.3579H15.7535V19.3185H15.7732V19.2987H15.793V19.279H15.8127V19.2593H15.8324V19.2397H15.8522V19.2199H15.8719V19.1805H15.8915V19.1607H15.9112V19.141H15.931V19.1213H15.9507V19.1015H15.9704V19.0818H15.9902V19.0621H16.0099V19.0425H16.0296V19.0227H16.0494V19.003H16.069V18.9635H16.0887V18.9438H16.1084V18.9241H16.1282V18.9043H16.1479V18.8846H16.1676V18.8649H16.1873V18.8453H16.2071V18.8255H16.2268V18.8058H16.2465V18.7861H16.2662V18.7663H16.2859V18.7466H16.3056V18.7269H16.3253V18.7071H16.3451V18.6874H16.3648V18.6677H16.3845V18.6481H16.4043V18.6283H16.424V18.6086H16.4437V18.5889H16.4633V18.5691H16.4831V18.5494H16.5028V18.5297H16.5225V18.5099H16.5423V18.4902H16.562V18.4705H16.5817V18.4509H16.6015V18.4311H16.6212V18.4114H16.6409V18.3917H16.6605V18.3719H16.6803V18.3522H16.7V18.3325H16.7197V18.3127H16.7395V18.293H16.7592V18.2734H16.7789V18.2537H16.7987V18.2339H16.8184V18.2142H16.8381V18.1945H16.8577V18.1747H16.8775V18.155H16.8972V18.1353H16.9169V18.1155H16.9367V18.0958H16.9564V18.0762H16.9761V18.0565H16.9959V18.0367H17.0156V18.017H17.0353V17.9973H17.0549V17.9775H17.0747V17.9578H17.0944V17.9381H17.1141V17.9183H17.1536V17.8986H17.1733V17.8593H17.1931V17.8395H17.2128V17.8198H17.2325V17.8001H17.2521V17.7803H17.2719V17.7606H17.2916V17.7409H17.3113V17.7211H17.3311V17.7014H17.3508V17.6818H17.3705V17.6621H17.3903V17.6226H17.41V17.6029H17.4297V17.5831H17.4493V17.5634H17.4691V17.5437H17.4888V17.5239H17.5085V17.4846H17.5283V17.4649H17.548V17.4451H17.5677V17.4057H17.5875V17.3859H17.6072V17.3662H17.6268V17.3465H17.6465V17.307H17.6663V17.2874H17.686V17.2479H17.7057V17.2282H17.7255V17.1887H17.7452V17.1493H17.7649V17.1295H17.7847V17.0902H17.8044V17.0507H17.824V17.031H17.8437V16.9718H17.8635V16.9126H17.8832V16.8535H17.9029V16.8141H17.9227V16.5183H17.9029V16.4394H17.8832V16.3802H17.8635V16.3605H17.8437V16.3211H17.824V16.3014H17.8044V16.2619H17.7847V16.2422H17.7649V16.2225H17.7452V16.2028H17.7255V16.183H17.7057V16.1633H17.686V16.1436H17.6663V16.1239H17.6465V16.1042H17.6072V16.0845H17.5875V16.0647H17.548V16.045H17.5283V16.0253H17.4888V16.0056H17.4493V15.9858H17.41V15.9661H17.3705V15.9464H17.3113V15.9268H17.2521V15.907H17.2128V15.8873H17.1536V15.8676H17.0549V15.8478H16.9761V15.8281H16.8577V15.8084H16.6803V15.7886H16.6605V15.8084H16.3056V15.8281H16.1873V15.8478H16.0887V15.8676H16.0296V15.8873H15.9704V15.907H15.8915V15.9268H15.8324V15.9464H15.793V15.9661H15.7535V15.9858H15.714V16.0056H15.655V16.0253H15.6155V16.045H15.576V16.0647H15.5366V16.0845H15.4971V16.1042H15.4775V16.1239H15.438V16.1436H15.4183V16.1633H15.3788V16.183H15.3591V16.2028H15.3196V16.2225H15.2999V16.2422H15.2803V16.2619H15.2408V16.2817H15.2211V16.3014H15.1816V16.3211H15.1619V16.3407H15.1422V16.3605H15.1224V16.3802H15.1027V16.3999H15.0831V16.4197H15.0436V16.4394H15.0239V16.4591H15.0042V16.4789H14.9844V16.4986H14.9647V16.5183H14.945V16.5379H14.9252V16.5577H14.9055V16.5774H14.8859V16.5971H14.8662V16.6169H14.8464V16.6366H14.8267V16.6563H14.807V16.6761H14.7872V16.6958H14.7675V16.7155H14.7478V16.7549H14.728V16.7746H14.7083V16.7943H14.6887V16.8141H14.669V16.8338H14.6492V16.8733H14.6295V16.893H14.6098V16.9126H14.59V16.9323H14.5703V16.9521H14.5506V16.9718H14.5308V17.0113H14.5111V17.031H14.4915V17.0705H14.4718V17.0902H14.452V17.1295H14.4323V17.1493H14.4126V17.1887H14.3928V17.2085H14.3731V17.2479H14.3534V17.2677H14.3336V17.307H14.314V17.3267H14.2943V17.3662H14.2746V17.3859H14.2548V17.4254H14.2351V17.4451H14.2154V17.4846H14.1956V17.5239H14.1759V17.5634H14.1562V17.6029H14.1364V17.6423H14.1168V17.6818H14.0971V17.7211H14.0774V17.7409H14.0576V17.7803H14.0379V17.8198H14.0182V17.8593H13.9984V17.8986H13.9787V17.9381H13.959V17.9775H13.9392V18.017H13.9196V18.0565H13.8999V18.0958H13.8802V18.155H13.8604V18.1945H13.8407V18.2339H13.821V18.293H13.8012V18.3325H13.7815V18.3719H13.7618V18.4311H13.742V18.4705H13.7224V18.5099H13.7027V18.5691H13.683V18.6086H13.6632V18.6677H13.6435V18.7269H13.6238V18.7861H13.604V18.8453H13.5843V18.9241H13.5646V18.9833H13.5448V19.0425H13.5252V19.1213H13.5055V19.2593H13.4858V19.3974H13.466V19.5551H13.4463V19.5748H13.466V19.9692H13.4858V20.048H13.5055V20.127H13.5252V20.2256H13.5448V20.3044H13.5646V20.3439H13.5843V20.3834H13.604V20.4424H13.6238V20.4819H13.6435V20.5214H13.6632V20.5608H13.683V20.6003H13.7027V20.6396H13.7224V20.6594H13.742V20.6988H13.7618V20.7186H13.7815V20.758H13.8012V20.7778H13.821V20.7975H13.8407V20.8368H13.8604V20.8566H13.8802V20.8763H13.8999V20.9158H13.9392V20.9355H13.959V20.9552H13.9787V20.975H13.9984V20.9947H14.0182V21.0143H14.0379V21.034H14.0576V21.0538H14.0774V21.0735H14.0971V21.0932H14.1168V21.113H14.1364V21.1327H14.1759V21.1524H14.1956V21.1722H14.2351V21.1919H14.2548V21.2115H14.2943V21.2312H14.314V21.251H14.3534V21.2707H14.3731V21.2904H14.4126V21.3102H14.452V21.3299H14.4915V21.3496H14.5308V21.3694H14.59V21.3891H14.6492V21.4087H14.7083V21.4284H14.807V21.4482H14.9252V21.4679H15.1226V21.4876H15.438V21.4679H15.6747V21.4482H15.8127V21.4284H15.931V21.4087H16.0296V21.3891H16.1283V21.3694H16.2071V21.3496H16.2859V21.3299H16.3648V21.3102H16.424V21.2904H16.4831V21.2707H16.562V21.251H16.6212V21.2312H16.6803V21.2115H16.7395V21.1919H16.7987V21.1722H16.8381V21.1524H16.8972V21.1327H16.9564V21.113H16.9959V21.0932H17.0549V21.0735H17.0944V21.0538H17.1536V21.034H17.1931V21.0143H17.2521V20.9947H17.2916V20.975H17.3311V20.9552H17.3705V20.9355H17.4297V20.9158H17.4691V20.896H17.5085V20.8763H17.548V20.8566H17.5875V20.8368H17.6268V20.8171H17.6663V20.7975H17.7255V20.7778H17.7649V20.758H17.8044V20.7383H17.8437V20.7186H17.8832V20.6988H17.9029V20.6791H17.9424V20.6594H17.9819V20.6396H18.0212V20.6199H18.0607V20.6003H18.1001V20.5806H18.1396V20.5608H18.1791V20.5411H18.1988V20.5214H18.2381V20.5016H18.2776V20.4819H18.3171V20.4622H18.3565V20.4424H18.3763V20.4227H18.4156V20.4031H18.4551V20.3834H18.4945V20.3636H18.5143V20.3439H18.5537V20.3242H18.5932V20.3044H18.6128V20.2847H18.6523V20.265H18.6917V20.2452H18.7115V20.2255H18.7509V20.2059H18.7904V20.1862H18.81V20.1664H18.8495V20.1467H18.8692V20.127H18.9087V20.1072H18.9481V20.0875H18.9679V20.0678H19.0072V20.048H19.0269V20.0283H19.0664V20.0087H19.1059V19.989H19.1256V19.9692H19.1651V19.9495H19.1847V19.9298H19.2241V19.91H19.2439V19.8903H19.2833V19.8706H19.3031V19.8508H19.3425V19.8312H19.3623V19.8115H19.4016V19.7918H19.4213V19.772H19.4608V19.7523H19.4805V19.7326H19.52V19.7128H19.5397V19.6931H19.5594V19.6734H19.5988V19.6537H19.6185V19.634H19.658V19.6143H19.6777V19.5946H19.7172V19.5748H19.7369V19.5551H19.7762V19.5354H19.796V19.5156H19.8157V19.4959H19.8552V19.4762H19.8749V19.4565H19.8946V19.4368H19.9341V19.4171H19.9538V19.3974H19.9932V19.3777H20.0129V19.3579H20.0326V19.3382H20.0721V19.3185H20.0918V19.2987H20.1116V19.279H20.151V19.2593H20.1706V19.2397H20.2101V19.2199H20.2298V19.2002H20.2496V19.1805H20.289V19.1607H20.3088V19.141H20.3285V19.1213H20.3678V19.1015H20.3876V19.0818H20.4073V19.0621H20.427V19.0425H20.4665V19.0227H20.4862V19.003H20.506V18.9833H20.5454V18.9635H20.565V18.9438H20.5848V18.9241H20.6242V18.9043H20.644V18.8846H20.6637V18.8649H20.6834V18.8453H20.7229V18.8255H20.7425V18.8058H20.7622V18.7861H20.8017V18.7663H20.8214V18.7466H20.8412V18.7269H20.8609V18.7071H20.9004V18.6874H20.9201V18.6677H20.9397V18.6481H20.9594V18.6283H20.9989V18.6086H21.0186V18.5889H21.0384V18.5691H21.0581V18.5494H21.0976V18.5297H21.1173V18.5099H21.1369V18.4902H21.1566V18.4705H21.1764V18.4509H21.2158V18.4311H21.2356V18.4114H21.2553V18.3917H21.275V18.3719H21.3145V18.3522H21.3341V18.3325H21.3538V18.3127H21.3736V18.293H21.3933V18.2734H21.4328V18.2537H21.4525V18.2339H21.4722V18.2142H21.492V18.1945H21.5117V18.1747H21.551V18.155H21.5708V18.1353H21.5905V18.1155H21.6102V18.0958H21.63V18.0762H21.6497V18.0565H21.6892V18.0367H21.7089V18.017H21.7285V17.9973H21.7482V17.9775H21.768V17.9578H21.7877V17.9381H21.8272V17.9183H21.8469V17.8986H21.8666V17.879H21.8864V17.8593H21.9061V17.8395H21.9257V17.8198H21.9454V17.8001H21.9849V17.7803H22.0046V17.7606H22.0244V17.7409H22.0441V17.7211H22.0638V17.7014H22.0836V17.6818H22.1033V17.6621H22.1229V17.6423H22.1426V17.6226H22.1821V17.6029H22.2018V17.5831H22.2216V17.5634H22.2413V17.5437H22.261V17.5239H22.2808V17.5042H22.3004V17.4846H22.3201V17.4649H22.3398V17.4451H22.3596V17.4254H22.3793V17.4057H22.399V17.3859H22.4188V17.3662H22.4385V17.3465H22.4582V17.3267H22.478V17.307H22.4976V17.2874H22.5173V17.2677H22.537V17.2479H22.5568V17.2282H22.5765V17.2085H22.5962V17.1887H22.616V17.169H22.6357V17.1493H22.6554V17.1295H22.6752V17.1098H22.6948V17.0902H22.7145V17.0705H22.7342V17.0507H22.754V17.031H22.7737V17.0113H22.7934V16.9915H22.8132V16.9718H22.8329V16.9521H22.8526V16.9323H22.8723V16.9126H22.892V16.8733H22.9117V16.8535H22.9314V16.8338H22.9512V16.8141H22.9709V16.7943H22.9906V16.7746H23.0103V16.7549H23.0301V16.7351H23.0498V16.7155H23.0695V16.6958H23.0892V16.6563H23.1089V16.6366H23.1286V16.6169H23.1483V16.5971H23.1681V16.5774H23.1878V16.5577H23.2075V16.5183H23.2273V16.4986H23.247V16.4789H23.2667V16.4591H23.2863V16.4394H23.3061V16.4197H23.3258V16.3802H23.3455V16.3605H23.3653V16.3407H23.385V16.3211H23.4047V16.3014H23.4245V16.2619H23.4442V16.2422H23.4639V16.2225H23.4835V16.183H23.5033V16.1633H23.523V16.1436H23.5427V16.1239H23.5625V16.0845H23.5822V16.0647H23.6019V16.045H23.6217V16.0253H23.6414V15.9858H23.6611V15.9661H23.6807V15.9464H23.7005V15.907H23.7202V15.8873H23.7399V15.8676H23.7597V15.8281H23.7794V15.8084H23.7991V15.7886H23.8189V15.7492H23.8386V15.7296H23.8582V15.6901H23.8779V15.6704H23.8977V15.6506H23.9174V15.6112H23.9371V15.5914H23.9569V15.552H23.9766V15.5324H23.9963V15.5126H24.0161V15.4732H24.0358V15.4534H24.0554V15.414H24.0751V15.3942H24.0949V15.3548H24.1146V15.3352H24.1343V15.2957H24.1541V15.276H24.1738V15.2365H24.1935V15.2168H24.2133V15.1773H24.233V15.1577H24.2526V15.1182H24.2723V15.0788H24.2921V15.059H24.3118V15.0196H24.3315V14.9998H24.3513V14.9605H24.371V14.921H24.3907V14.9013H24.4105V14.8618H24.4302V14.8224H24.4498V14.8026H24.4695V14.7633H24.4893V14.7238H24.509V14.7041H24.5287V14.6646H24.5485V14.6252H24.5682V14.5857H24.5879V14.5661H24.6077V14.5266H24.6274V14.4872H24.647V14.4477H24.6667V14.4082H24.6865V14.3689H24.7062V14.3294H24.7259V14.3097H24.7457V14.2702H24.7654V14.2308H24.7851V14.1913H24.8049V14.152H24.8246V14.1125H24.8442V14.073H24.8639V14.0336H24.8837V13.9941H24.9034V13.9548H24.9231V13.8956H24.9429V13.8561H24.9626V13.8166H24.9823V13.7773H25.0021V13.7378H25.0218V13.6984H25.0414V13.6589H25.0611V13.5998H25.0809V13.5604H25.1006V13.5012H25.1203V13.4617H25.1401V13.4026H25.1598V13.3632H25.1795V13.304H25.1993V13.2645H25.219V13.2054H25.2386V13.166H25.2583V13.1068H25.2781V13.0476H25.2978V12.9885H25.3175V12.9293H25.3373V12.8701H25.357V12.811H25.3767V12.7519H25.3965V12.6927H25.4161V12.6335H25.4358V12.5547H25.4555V12.4757H25.4753V12.4167H25.495V12.3377H25.5147V12.2588H25.5345V12.18H25.5542V12.0813H25.5739V11.9827H25.5937V11.8841H25.6133V11.7855H25.633V11.6673H25.6527V11.5095H25.6725V11.3517H25.6922V11.0953H25.7119V10.4841H25.6922V10.1093H25.6725V9.95174H25.6527V9.83348H25.633V9.71508H25.6133V9.59694H25.5937V9.47855H25.5739V9.37988H25.5542V9.32068H25.5345V9.26161H25.5147V9.18268H25.495V9.12348H25.4753V9.06442H25.4555V8.98549H25.4358V8.92642H25.4161V8.86722H25.3965V8.80802H25.3767V8.76855H25.357V8.72922H25.3373V8.67002H25.3175V8.63055H25.2978V8.59109H25.2781V8.55162H25.2583V8.49256H25.2386V8.45309H25.219V8.41362H25.1993V8.37416H25.1795V8.33482H25.1598V8.29536H25.1401V8.25589H25.1203V8.23616H25.1006V8.19669H25.0809V8.17696H25.0611V8.13762H25.0414V8.09816H25.0218V8.07843H25.0021V8.03896H24.9823V7.9995H24.9626V7.97976H24.9429V7.94043H24.9231V7.92069H24.9034V7.88123H24.8837V7.8615H24.8639V7.84176H24.8442V7.8023H24.8246V7.78256H24.8049V7.76283H24.7851V7.74323H24.7654V7.70376H24.7457V7.68403H24.7259V7.6643H24.7062V7.64456H24.6865V7.6051H24.6667V7.58537H24.647V7.56563H24.6274V7.54603H24.6077V7.5263H24.5879V7.48683H24.5682V7.46697H24.5485V7.44724H24.5287V7.4275H24.509V7.40777H24.4893V7.38804H24.4695V7.36844H24.4302V7.3487H24.4105V7.32897H24.3907V7.30924H24.371V7.2895H24.3513V7.26977H24.3315V7.25004H24.3118V7.23031H24.2921V7.21057H24.2723V7.19084H24.2526V7.17124H24.233V7.1515H24.2133V7.13177H24.1935V7.11204H24.1541V7.09231H24.1343V7.07257H24.1146V7.05284H24.0751V7.03311H24.0554V7.01338H24.0358V6.99364H23.9963V6.97404H23.9766V6.95418H23.9569V6.93444H23.9174V6.91471H23.8977V6.89498H23.8779V6.87525H23.8582V6.85551H23.8189V6.83604H23.7794V6.81631H23.7597V6.79657H23.7202V6.77697H23.6807V6.75724H23.6611V6.73738H23.6217V6.71764H23.6019V6.69791H23.5625V6.67818H23.523V6.65845H23.5033V6.63871H23.4639V6.61898H23.4245V6.59925H23.385V6.57964H23.3455V6.55991H23.3061V6.54005H23.2667V6.52032H23.2273V6.50058H23.1878V6.48085H23.1483V6.46112H23.1089V6.44138H23.0695V6.42191H23.0301V6.40218H22.9709V6.38258H22.9314V6.36284H22.8723V6.34311H22.8329V6.32325H22.7737V6.30351H22.7145V6.28378H22.6752V6.26405H22.616V6.24432H22.5568V6.22458H22.4976V6.20485H22.4385V6.18525H22.3596V6.16551H22.3004V6.14578H22.2413V6.12592H22.1624V6.10619H22.0836V6.08645H22.0046V6.06672H21.906V6.04699H21.8272V6.02739H21.7285V6.00778H21.6102V5.98805H21.492V5.96832H21.3736V5.94858H21.1961V5.92885H21.0186V5.90912H20.0524Z" fill="white"/>
</svg>
