<svg width="199" height="42" viewBox="0 0 199 42" fill="none" xmlns="http://www.w3.org/2000/svg">
<path d="M34.1186 21.1959C34.1186 21.2821 34.0846 21.3648 34.024 21.4261C33.9634 21.4873 33.8811 21.5222 33.7949 21.5232C32.7851 21.5329 31.7803 21.6658 30.8028 21.9188C29.974 22.0969 29.2205 22.5264 28.645 23.1487C28.5942 23.2092 28.5662 23.2856 28.5658 23.3645V33.2544C28.5658 33.3412 28.5314 33.4245 28.47 33.4858C28.4086 33.5472 28.3254 33.5817 28.2386 33.5817H22.6175C22.5304 33.5817 22.4468 33.5473 22.3848 33.4861C22.3229 33.4248 22.2876 33.3416 22.2866 33.2544V21.8217C22.2852 21.1067 22.4248 20.3984 22.6975 19.7375C22.9701 19.0765 23.3704 18.4758 23.8755 17.9697C24.3805 17.4636 24.9805 17.0621 25.6409 16.7882C26.3013 16.5142 27.0093 16.3732 27.7243 16.3732C27.8114 16.3732 27.895 16.4076 27.957 16.4689C28.0189 16.5301 28.0542 16.6134 28.0552 16.7005V18.2901C28.0548 18.3601 28.0769 18.4283 28.1182 18.4848C28.1595 18.5414 28.2178 18.5831 28.2846 18.6041C28.3514 18.625 28.4231 18.6239 28.4893 18.6011C28.5554 18.5782 28.6125 18.5348 28.6521 18.4771C29.115 17.8026 29.6977 17.2187 30.3712 16.7545C31.2359 16.1459 32.2664 15.8171 33.3238 15.8122H33.8345C33.9301 15.8117 34.0255 15.8225 34.1186 15.8446V21.1959Z" fill="#3E61AC"/>
<path d="M35.1867 27.7017V22.3539C35.1853 21.569 35.3387 20.7916 35.6381 20.066C35.9374 19.3405 36.3769 18.6811 36.9314 18.1256C37.4859 17.5701 38.1445 17.1294 38.8696 16.8287C39.5946 16.528 40.3717 16.3732 41.1566 16.3732C41.2434 16.3732 41.3267 16.4077 41.388 16.4691C41.4494 16.5304 41.4839 16.6137 41.4839 16.7005V26.2272C41.4476 26.8495 41.6295 27.4651 41.9982 27.9678C42.1674 28.176 42.3831 28.3417 42.6279 28.4516C42.8727 28.5615 43.1399 28.6126 43.4079 28.6007C43.7427 28.5996 44.0761 28.5574 44.4005 28.4749C44.7662 28.3743 45.1092 28.2046 45.4111 27.975C45.7709 27.6951 46.0893 27.3658 46.3569 26.9968C46.3995 26.9383 46.4222 26.8677 46.4217 26.7954V22.3539C46.4217 21.5699 46.5761 20.7936 46.8761 20.0693C47.1761 19.345 47.6159 18.6869 48.1702 18.1325C48.7246 17.5782 49.3827 17.1384 50.107 16.8384C50.8313 16.5384 51.6076 16.384 52.3916 16.384C52.4784 16.384 52.5616 16.4185 52.623 16.4798C52.6844 16.5412 52.7188 16.6245 52.7188 16.7113V26.6551C52.6777 27.0793 52.7708 27.5058 52.985 27.8743C53.1579 28.072 53.397 28.1999 53.6575 28.2339C53.7298 28.2509 53.7943 28.2916 53.8406 28.3497C53.8869 28.4078 53.9124 28.4797 53.9128 28.554V33.3119C53.9125 33.3888 53.8854 33.4632 53.8361 33.5222C53.7869 33.5813 53.7187 33.6214 53.6431 33.6356C53.1972 33.7183 52.7908 33.7866 52.4203 33.8298C52.0366 33.8832 51.6498 33.912 51.2623 33.9161C50.3839 33.9606 49.511 33.7548 48.7449 33.3227C48.4333 33.1212 48.1668 32.8574 47.9619 32.548C47.7571 32.2385 47.6184 31.8901 47.5545 31.5246L47.4214 30.906C46.6671 31.9231 45.6537 32.7192 44.4868 33.2112C43.2602 33.7018 41.949 33.9462 40.628 33.9305C38.8802 33.9305 37.5375 33.3958 36.6001 32.3265C35.6626 31.2572 35.1915 29.7156 35.1867 27.7017Z" fill="#3E61AC"/>
<path d="M67.2372 33.9162C66.0625 33.9458 64.8995 33.6773 63.8566 33.1358C63.2133 32.786 62.6461 32.3117 62.1879 31.7404C62.1463 31.6865 62.0889 31.647 62.0238 31.6273C61.9586 31.6076 61.8889 31.6087 61.8244 31.6304C61.7599 31.6522 61.7037 31.6936 61.6638 31.7487C61.6239 31.8039 61.6022 31.8701 61.6017 31.9382V33.2545C61.6017 33.3413 61.5673 33.4245 61.5059 33.4859C61.4445 33.5472 61.3613 33.5817 61.2745 33.5817H56.4626C56.3758 33.5817 56.2925 33.5472 56.2312 33.4859C56.1698 33.4245 56.1353 33.3413 56.1353 33.2545V15.3627C56.1353 13.7794 56.7643 12.2609 57.8839 11.1413C59.0034 10.0218 60.5219 9.39279 62.1052 9.39279C62.1482 9.39279 62.1908 9.40126 62.2305 9.41771C62.2702 9.43415 62.3063 9.45826 62.3366 9.48865C62.367 9.51904 62.3911 9.55512 62.4076 9.59482C62.424 9.63453 62.4325 9.67708 62.4325 9.72006V17.9449C62.4311 18.0127 62.4508 18.0794 62.489 18.1355C62.5271 18.1917 62.5818 18.2346 62.6454 18.2583C62.709 18.282 62.7784 18.2853 62.844 18.2678C62.9096 18.2503 62.9682 18.2129 63.0115 18.1607C63.4436 17.6285 63.978 17.1882 64.5831 16.866C65.598 16.3466 66.7268 16.0894 67.8666 16.1179C68.8881 16.1091 69.8978 16.3381 70.8155 16.7869C71.7278 17.239 72.5351 17.8773 73.1855 18.6605C73.8809 19.5066 74.4148 20.4733 74.7607 21.5124C75.1447 22.6635 75.3354 23.8702 75.3254 25.0836C75.3385 26.2838 75.13 27.4762 74.7104 28.6008C74.3258 29.6358 73.7527 30.5906 73.0201 31.4167C72.3132 32.2136 71.4421 32.8479 70.4667 33.276C69.4472 33.7141 68.3467 33.9323 67.2372 33.9162ZM65.2197 28.6008C65.76 28.6333 66.301 28.5486 66.8056 28.3527C67.2101 28.1881 67.5771 27.9435 67.8845 27.6334C68.1995 27.323 68.4447 26.9491 68.6038 26.5365C68.778 26.0773 68.8622 25.589 68.852 25.098C68.8605 24.4533 68.7189 23.8155 68.4384 23.2351C68.1849 22.7004 67.797 22.2407 67.3127 21.9008C66.885 21.611 66.3871 21.4417 65.8714 21.4107C65.3557 21.3797 64.8411 21.4881 64.3817 21.7246C63.95 21.9446 63.5623 22.2421 63.2381 22.6021C62.906 22.9604 62.6394 23.3743 62.4505 23.8249C62.4352 23.8676 62.4267 23.9125 62.4253 23.9579V26.8026C62.4248 26.875 62.4475 26.9456 62.49 27.004C62.6659 27.2368 62.8595 27.4556 63.069 27.6586C63.2846 27.8696 63.5263 28.0521 63.7883 28.2016C64.1023 28.3724 64.4407 28.4937 64.7917 28.5613C64.9329 28.587 65.0761 28.6002 65.2197 28.6008Z" fill="#3E61AC"/>
<path d="M77.0516 27.7017V22.3539C77.0516 20.7706 77.6806 19.2522 78.8002 18.1326C79.9198 17.013 81.4382 16.384 83.0216 16.384C83.0645 16.384 83.1071 16.3925 83.1468 16.4089C83.1865 16.4254 83.2226 16.4495 83.253 16.4799C83.2834 16.5103 83.3075 16.5464 83.3239 16.5861C83.3404 16.6258 83.3488 16.6683 83.3488 16.7113V26.238C83.3125 26.8604 83.4944 27.4759 83.8631 27.9786C84.0324 28.1868 84.248 28.3525 84.4928 28.4624C84.7376 28.5723 85.0048 28.6234 85.2729 28.6116C85.6076 28.6105 85.941 28.5682 86.2654 28.4857C86.6311 28.3851 86.9742 28.2154 87.276 27.9858C87.6355 27.7067 87.9528 27.3773 88.2183 27.0076C88.268 26.9501 88.2982 26.8783 88.3046 26.8026V22.3539C88.3046 20.7706 88.9335 19.2522 90.0531 18.1326C91.1727 17.013 92.6912 16.384 94.2745 16.384C94.3613 16.384 94.4445 16.4185 94.5059 16.4799C94.5673 16.5413 94.6017 16.6245 94.6017 16.7113V26.6552C94.5615 27.0789 94.6532 27.5047 94.8643 27.8743C95.0381 28.0728 95.2786 28.2008 95.5404 28.234C95.6123 28.251 95.6764 28.2919 95.7221 28.3501C95.7678 28.4082 95.7925 28.4801 95.7921 28.554V33.312C95.7926 33.3885 95.7663 33.4628 95.7177 33.522C95.669 33.5811 95.6012 33.6213 95.526 33.6356C95.0801 33.7184 94.6701 33.7867 94.3032 33.8298C93.9183 33.8832 93.5303 33.912 93.1416 33.9162C92.2632 33.961 91.3901 33.7552 90.6242 33.3228C90.3125 33.1209 90.0457 32.8571 89.8403 32.5478C89.6349 32.2384 89.4953 31.8902 89.4302 31.5246L89.3007 30.906C88.5455 31.9223 87.5323 32.7182 86.3661 33.2113C85.1395 33.7018 83.8283 33.9462 82.5073 33.9305C80.7595 33.9305 79.4168 33.3959 78.4794 32.3266C77.5419 31.2573 77.066 29.7156 77.0516 27.7017Z" fill="#3E61AC"/>
<path d="M110.034 32.3158C110.051 32.3915 110.042 32.4711 110.006 32.5404C109.97 32.6096 109.911 32.6638 109.839 32.6934C109.339 32.8984 108.814 33.089 108.257 33.2688C107.606 33.476 106.942 33.6358 106.268 33.7471C105.617 33.857 104.958 33.9136 104.297 33.9161C103.402 33.9266 102.514 33.7655 101.679 33.4414C100.894 33.1398 100.225 32.5956 99.7696 31.8878C99.2497 30.9977 98.9998 29.9756 99.0504 28.946V21.4512C99.0504 21.3645 99.0159 21.2812 98.9545 21.2198C98.8931 21.1585 98.8099 21.124 98.7231 21.124H97.227C97.1399 21.124 97.0563 21.0896 96.9943 21.0283C96.9324 20.9671 96.8971 20.8838 96.8962 20.7967V16.7113C96.8971 16.6242 96.9324 16.5409 96.9943 16.4796C97.0563 16.4184 97.1399 16.384 97.227 16.384H98.7339C98.8207 16.384 98.9039 16.3495 98.9653 16.2882C99.0267 16.2268 99.0612 16.1435 99.0612 16.0567C99.0621 14.6934 99.6044 13.3863 100.569 12.4226C101.533 11.4589 102.841 10.9176 104.204 10.9176H105.031C105.074 10.9171 105.117 10.9252 105.157 10.9415C105.197 10.9578 105.233 10.9819 105.264 11.0124C105.294 11.0429 105.318 11.0791 105.334 11.1191C105.351 11.159 105.359 11.2017 105.358 11.2449V16.0567C105.359 16.1439 105.395 16.2271 105.457 16.2884C105.518 16.3497 105.602 16.384 105.689 16.384H108.444C108.531 16.384 108.614 16.4185 108.675 16.4799C108.737 16.5412 108.771 16.6245 108.771 16.7113V20.7967C108.771 20.8835 108.737 20.9668 108.675 21.0281C108.614 21.0895 108.531 21.124 108.444 21.124H105.686C105.598 21.124 105.515 21.1583 105.453 21.2196C105.391 21.2809 105.356 21.3641 105.355 21.4512V26.6803C105.332 26.8888 105.351 27.0999 105.413 27.3003C105.475 27.5008 105.578 27.6864 105.714 27.8455C105.989 28.0823 106.345 28.2024 106.707 28.18C107.066 28.1726 107.423 28.1182 107.768 28.0182C108.048 27.939 108.329 27.8491 108.609 27.7484C108.653 27.7324 108.7 27.7259 108.746 27.7292C108.793 27.7326 108.838 27.7457 108.879 27.7678C108.92 27.7899 108.956 27.8204 108.985 27.8573C109.013 27.8943 109.034 27.9368 109.045 27.9822L110.034 32.3158Z" fill="#3E61AC"/>
<path d="M120.628 33.9162C119.225 33.9411 117.83 33.697 116.518 33.1969C115.39 32.761 114.369 32.0891 113.522 31.2261C112.726 30.4097 112.106 29.4392 111.699 28.3742C111.288 27.3035 111.079 26.1657 111.084 25.0188C111.08 23.8662 111.288 22.7226 111.699 21.6455C112.1 20.5764 112.721 19.6035 113.522 18.79C114.373 17.9361 115.393 17.2708 116.518 16.8372C119.179 15.8783 122.092 15.8783 124.753 16.8372C125.872 17.2745 126.887 17.9395 127.735 18.79C128.534 19.6054 129.155 20.5777 129.558 21.6455C129.968 22.7228 130.175 23.8664 130.17 25.0188C130.175 26.1655 129.968 27.3033 129.558 28.3742C129.139 29.4693 128.495 30.4643 127.667 31.295C126.84 32.1257 125.847 32.7736 124.753 33.1969C123.438 33.6998 122.037 33.9441 120.628 33.9162ZM117.546 25.0045C117.53 25.6664 117.666 26.3232 117.942 26.9249C118.181 27.4355 118.56 27.8675 119.036 28.1702C119.511 28.4728 120.063 28.6336 120.627 28.6336C121.19 28.6336 121.742 28.4728 122.218 28.1702C122.693 27.8675 123.073 27.4355 123.311 26.9249C123.575 26.3176 123.71 25.6628 123.71 25.0009C123.71 24.339 123.575 23.6841 123.311 23.0768C123.071 22.5685 122.69 22.139 122.215 21.8382C121.74 21.5375 121.189 21.3778 120.627 21.3778C120.064 21.3778 119.513 21.5375 119.038 21.8382C118.563 22.139 118.183 22.5685 117.942 23.0768C117.665 23.6809 117.53 24.3402 117.546 25.0045Z" fill="#3E61AC"/>
<path d="M132.54 33.2544V18.2037C132.54 16.0427 133.399 13.9705 134.927 12.4424C136.456 10.9143 138.528 10.0554 140.689 10.0545H142.681C143.78 10.0442 144.867 10.2827 145.86 10.7521C146.815 11.2025 147.671 11.8382 148.378 12.6222C149.079 13.3946 149.635 14.2877 150.018 15.2584C150.399 16.1938 150.596 17.1937 150.6 18.2037C150.605 19.5828 150.269 20.9416 149.622 22.1597C148.982 23.3798 148.048 24.4206 146.903 25.1878C145.702 25.9856 144.285 26.396 142.843 26.3638H139.329C139.242 26.3648 139.159 26.4001 139.098 26.462C139.036 26.5239 139.002 26.6076 139.002 26.6947V33.2616C139.002 33.3484 138.968 33.4316 138.906 33.493C138.845 33.5544 138.762 33.5889 138.675 33.5889H132.852C132.767 33.5851 132.686 33.548 132.628 33.4855C132.569 33.423 132.538 33.34 132.54 33.2544ZM139.013 20.3975C139.013 20.4843 139.047 20.5676 139.109 20.6289C139.17 20.6903 139.253 20.7248 139.34 20.7248H142.422C142.695 20.7245 142.962 20.6431 143.188 20.491C143.467 20.2929 143.68 20.0161 143.8 19.6962C143.985 19.2211 144.07 18.7132 144.051 18.2037C144.076 17.6757 143.979 17.149 143.767 16.6645C143.618 16.3452 143.374 16.0792 143.07 15.9021C142.821 15.7658 142.544 15.6917 142.26 15.6863H139.34C139.253 15.6863 139.17 15.7208 139.109 15.7822C139.047 15.8435 139.013 15.9268 139.013 16.0136V20.3975Z" fill="#3E61AC"/>
<path d="M151.151 28.4102C151.133 27.3171 151.471 26.2479 152.114 25.3641C152.802 24.448 153.724 23.7337 154.783 23.2962C156.014 22.7801 157.339 22.5254 158.674 22.5482C159.325 22.5465 159.975 22.6019 160.616 22.7136C161.16 22.8057 161.689 22.9727 162.188 23.2099V22.6812C162.213 22.3539 162.161 22.0253 162.036 21.7217C161.911 21.4181 161.717 21.1481 161.468 20.9334C160.989 20.5522 160.22 20.3616 159.163 20.3616C158.231 20.3561 157.305 20.5181 156.43 20.8399C155.607 21.1608 154.819 21.5645 154.078 22.0447C154.039 22.0702 153.994 22.0869 153.948 22.0938C153.902 22.1006 153.854 22.0975 153.809 22.0845C153.764 22.0716 153.723 22.0491 153.687 22.0187C153.652 21.9882 153.623 21.9505 153.603 21.908L152.064 18.6066C152.03 18.5336 152.023 18.4506 152.045 18.3731C152.068 18.2956 152.118 18.229 152.186 18.1858C153.259 17.5205 154.42 17.0084 155.635 16.6646C156.991 16.2925 158.391 16.1085 159.796 16.1179C162.558 16.1179 164.694 16.7269 166.205 17.9449C167.715 19.1628 168.481 20.9694 168.503 23.3645V26.6624C168.463 27.0849 168.555 27.5095 168.765 27.8779C168.939 28.0741 169.178 28.2017 169.438 28.2376C169.51 28.2539 169.575 28.2946 169.622 28.3527C169.668 28.4109 169.693 28.4832 169.693 28.5576V33.312C169.693 33.3877 169.666 33.4609 169.619 33.5197C169.571 33.5785 169.505 33.6194 169.431 33.6357C169.021 33.7184 168.629 33.7831 168.255 33.8263C167.853 33.8802 167.448 33.909 167.043 33.9126C165.916 33.9126 165.06 33.7076 164.475 33.2976C163.878 32.8667 163.468 32.2231 163.331 31.4994L163.198 30.8665C162.483 31.8136 161.567 32.5899 160.515 33.1394C159.514 33.654 158.404 33.9216 157.279 33.9198C156.198 33.9352 155.129 33.6884 154.164 33.2005C153.271 32.7525 152.515 32.0731 151.974 31.2333C151.433 30.3915 151.147 29.411 151.151 28.4102ZM161.361 28.7698C161.586 28.62 161.786 28.4355 161.954 28.2232C162.1 28.0527 162.183 27.8366 162.188 27.6118V26.6264C162.189 26.5568 162.167 26.4888 162.126 26.4325C162.085 26.3761 162.027 26.3344 161.961 26.3135C161.639 26.2135 161.311 26.1342 160.979 26.0762C160.58 25.9966 160.174 25.9545 159.767 25.9503C159.094 25.9298 158.43 26.1155 157.865 26.4826C157.629 26.6209 157.434 26.8178 157.297 27.0542C157.16 27.2905 157.087 27.5582 157.084 27.8312C157.084 28.1185 157.176 28.3983 157.347 28.6296C157.532 28.8773 157.781 29.071 158.066 29.1906C158.4 29.3344 158.76 29.4043 159.124 29.3956C159.522 29.3926 159.917 29.3345 160.3 29.223C160.674 29.1303 161.031 28.9811 161.361 28.7806V28.7698Z" fill="#3E61AC"/>
<path d="M188.675 11.6692C188.734 11.6479 188.799 11.6442 188.86 11.6587C188.922 11.6732 188.978 11.7052 189.021 11.7509C189.065 11.7965 189.095 11.8538 189.107 11.9159C189.119 11.9781 189.112 12.0423 189.088 12.1008C188.948 12.4604 188.826 12.8201 188.775 12.9459C188.57 13.4351 188.373 13.9278 188.193 14.4312C187.758 15.6504 187.362 16.8875 186.963 18.1211C185.075 23.9435 183.248 29.8271 181.568 35.7179C181.253 36.8066 180.698 37.8106 179.943 38.6561C179.187 39.5076 178.258 40.1872 177.218 40.6494C176.177 41.1115 175.05 41.3455 173.912 41.3354C173.363 41.337 172.815 41.2876 172.275 41.188C171.799 41.0977 171.332 40.9653 170.88 40.7924C170.817 40.7688 170.763 40.7264 170.725 40.6711C170.687 40.6158 170.667 40.5502 170.668 40.4831V35.7935C170.668 35.742 170.681 35.6914 170.704 35.6456C170.728 35.5998 170.762 35.5601 170.803 35.5298C170.845 35.4994 170.893 35.4791 170.944 35.4706C170.995 35.462 171.047 35.4655 171.096 35.4806C171.455 35.5921 171.768 35.682 172.074 35.7539C172.459 35.8477 172.854 35.8972 173.25 35.9013C173.651 35.9153 174.048 35.8301 174.408 35.6532C174.721 35.4809 174.972 35.2157 175.127 34.8944C175.305 34.5291 175.413 34.134 175.447 33.7292C175.46 33.6784 175.46 33.6253 175.447 33.5745L171.38 22.4547C171.137 21.7924 171.053 21.0824 171.134 20.3818C171.215 19.6811 171.46 19.0092 171.847 18.42C172.235 17.8308 172.756 17.3407 173.367 16.989C173.979 16.6373 174.664 16.4338 175.368 16.3948C175.441 16.3912 175.513 16.4123 175.573 16.4547C175.632 16.4972 175.675 16.5584 175.695 16.6286L178.573 26.1121C178.593 26.1816 178.636 26.2424 178.694 26.2849C178.753 26.3275 178.824 26.3495 178.896 26.3474C178.968 26.3454 179.038 26.3194 179.094 26.2736C179.15 26.2278 179.189 26.1646 179.206 26.0941L180.036 22.7352C181.148 18.2829 184.172 13.3487 188.675 11.6692Z" fill="#3E61AC"/>
<path d="M182.654 0.668047L198.942 4.45858C198.952 4.46104 198.962 4.46557 198.97 4.47189C198.979 4.47821 198.985 4.48618 198.99 4.49531C198.996 4.50443 198.999 4.51451 199 4.5249C199.001 4.53529 198.999 4.54577 198.996 4.55568L191.372 25.3245C191.367 25.3431 191.355 25.3591 191.339 25.3688C191.322 25.3786 191.302 25.3814 191.284 25.3767C191.265 25.3719 191.249 25.3599 191.24 25.3434C191.23 25.3269 191.227 25.3071 191.232 25.2885L193.728 8.24192C193.729 8.22812 193.727 8.21409 193.722 8.2014C193.716 8.18871 193.707 8.17784 193.695 8.17L182.601 0.80111C182.584 0.793203 182.571 0.779297 182.564 0.76222C182.558 0.745143 182.558 0.726182 182.565 0.70921C182.572 0.692238 182.585 0.678528 182.602 0.670879C182.618 0.66323 182.637 0.662219 182.654 0.668047Z" fill="#E6D500"/>
<path d="M20.9417 10.6586C19.9995 11.7124 19.7369 15.974 19.6722 19.1388V22.7351C19.6825 24.1666 19.4814 25.5917 19.0752 26.9644C18.7034 28.2147 18.0928 29.3811 17.277 30.3989C16.4565 31.394 15.4078 32.1762 14.2202 32.679C12.8249 33.2517 11.326 33.5285 9.81825 33.4918C8.28038 33.5323 6.75189 33.2403 5.33722 32.6358C4.14462 32.1063 3.09727 31.297 2.28393 30.2766C1.48456 29.2524 0.895471 28.0804 0.550502 26.8278C0.177232 25.4959 -0.00797354 24.1183 0.000263084 22.7351V16.5422C0.000263084 15.2212 0.525035 13.9543 1.45914 13.0202C2.39324 12.0861 3.66016 11.5613 4.98118 11.5613H5.46669C5.53422 11.5613 5.6011 11.5746 5.66349 11.6005C5.72589 11.6263 5.78258 11.6642 5.83033 11.712C5.87809 11.7597 5.91597 11.8164 5.94181 11.8788C5.96766 11.9412 5.98096 12.0081 5.98096 12.0756V22.7387C5.97833 23.429 6.05069 24.1176 6.19674 24.7922C6.32433 25.407 6.55279 25.9963 6.87286 26.5365C7.163 27.0293 7.56762 27.445 8.05245 27.7484C8.58826 28.0577 9.19991 28.2109 9.81825 28.1908C10.4466 28.2089 11.0682 28.056 11.6164 27.7484C12.1084 27.4477 12.5146 27.0253 12.796 26.5221C13.1054 25.9723 13.3274 25.3778 13.4541 24.7599C13.5991 24.096 13.6714 23.4183 13.6699 22.7387V17.4521C13.6699 17.3346 13.6699 17.2148 13.6699 17.0925C13.839 12.2159 19.3485 10.8025 20.8302 10.5076C20.8503 10.4928 20.8753 10.4866 20.9 10.4903C20.9246 10.494 20.9467 10.5074 20.9615 10.5274C20.9763 10.5474 20.9825 10.5725 20.9788 10.5971C20.9751 10.6217 20.9617 10.6439 20.9417 10.6586Z" fill="#3E61AC"/>
</svg>
