<svg width="68" height="28" viewBox="0 0 68 28" fill="none" xmlns="http://www.w3.org/2000/svg">
<rect width="67.0085" height="28" rx="5" fill="#FFCC00"/>
<path fill-rule="evenodd" clip-rule="evenodd" d="M52.6032 13.9968C52.6032 19.0532 44.1751 23.1539 33.781 23.1539C23.3803 23.1539 14.9521 19.0532 14.9521 13.9968C14.9521 8.94686 23.3803 4.84619 33.781 4.84619C44.1751 4.84619 52.6032 8.94686 52.6032 13.9968ZM51.1155 13.9968C51.1155 9.74116 43.3582 6.29273 33.781 6.29273C24.2039 6.29273 16.4399 9.74116 16.4399 13.9968C16.4399 18.2525 24.2039 21.7073 33.781 21.7073C43.3582 21.7073 51.1155 18.2525 51.1155 13.9968V13.9968ZM31.4033 12.3953V10.9488H36.7166V12.3953H34.8038V17.0513H33.3161V12.3953H31.4033ZM43.1257 10.9488V17.0513H41.638L38.9415 13.4221V17.0513H37.4604V10.9488H38.9415L41.638 14.578V10.9488H43.1257ZM24.3898 17.0513V10.9488H25.8709L27.5246 13.4156L29.1784 10.9488H30.6595V17.0513H29.1784V13.5964L28.0493 15.2819H27L25.8709 13.5964V17.0513H24.3898Z" fill="#020001"/>
</svg>
