<svg width="81" height="29" viewBox="0 0 81 29" fill="none" xmlns="http://www.w3.org/2000/svg">
<rect x="0.606812" width="79.7244" height="28.138" rx="5" fill="white"/>
<rect x="1.10681" y="0.5" width="78.7244" height="27.138" rx="4.5" stroke="black" stroke-opacity="0.06"/>
<g clip-path="url(#clip0_742_1675)">
<path d="M20.8661 19.5343H18.1309L19.8417 8.63892H22.5768L20.8661 19.5343Z" fill="#00579F"/>
<path d="M30.7817 8.90526C30.2422 8.68481 29.3864 8.44141 28.3284 8.44141C25.6272 8.44141 23.7251 9.92495 23.7134 12.046C23.691 13.6109 25.0753 14.48 26.1106 15.0018C27.1689 15.535 27.5286 15.883 27.5286 16.3583C27.5178 17.0882 26.6735 17.4246 25.886 17.4246C24.7939 17.4246 24.2088 17.2512 23.3196 16.8451L22.9594 16.671L22.5767 19.1168C23.2182 19.4178 24.4001 19.6849 25.6272 19.6966C28.4972 19.6966 30.3657 18.236 30.3878 15.9757C30.3988 14.7355 29.6678 13.7851 28.0919 13.0085C27.1352 12.51 26.5493 12.1738 26.5493 11.6638C26.5606 11.2001 27.0449 10.7251 28.1248 10.7251C29.014 10.7018 29.6673 10.922 30.1623 11.1423L30.4097 11.258L30.7817 8.90526V8.90526Z" fill="#00579F"/>
<path d="M34.4169 15.6744C34.6422 15.0485 35.509 12.626 35.509 12.626C35.4976 12.6493 35.7338 11.9885 35.8689 11.5829L36.06 12.5217C36.06 12.5217 36.578 15.1297 36.6905 15.6744C36.263 15.6744 34.9572 15.6744 34.4169 15.6744ZM37.7933 8.63892H35.6776C35.0251 8.63892 34.5294 8.8358 34.2479 9.54291L30.1851 19.5341H33.0551C33.0551 19.5341 33.5276 18.1894 33.6291 17.8997C33.944 17.8997 36.7359 17.8997 37.141 17.8997C37.2195 18.2823 37.4673 19.5341 37.4673 19.5341H39.9999L37.7933 8.63892V8.63892Z" fill="#00579F"/>
<path d="M15.8464 8.63892L13.1676 16.0685L12.8749 14.5617C12.3797 12.823 10.8265 10.934 9.09326 9.99475L11.5469 19.5227H14.4393L18.7387 8.63892H15.8464V8.63892Z" fill="#00579F"/>
<path d="M10.6802 8.63892H6.2794L6.23438 8.85906C9.66724 9.7632 11.9408 11.9426 12.8748 14.5622L11.9182 9.55477C11.7607 8.85891 11.2767 8.66187 10.6802 8.63892Z" fill="#FAA61A"/>
</g>
<g clip-path="url(#clip1_742_1675)">
<path d="M51.4948 22.4734V21.353C51.4948 20.9244 51.2303 20.6437 50.7763 20.6437C50.5493 20.6437 50.3025 20.7177 50.1328 20.9613C50.0005 20.7568 49.811 20.6437 49.5267 20.6437C49.3372 20.6437 49.1476 20.7003 48.9978 20.9048V20.6807H48.6011V22.4734H48.9978V21.4835C48.9978 21.1659 49.1675 21.0157 49.4319 21.0157C49.6964 21.0157 49.8286 21.1833 49.8286 21.4835V22.4734H50.2253V21.4835C50.2253 21.1659 50.4149 21.0157 50.6595 21.0157C50.924 21.0157 51.0562 21.1833 51.0562 21.4835V22.4734H51.4948ZM57.3791 20.6807H56.7356V20.139H56.3389V20.6807H55.9796V21.0353H56.3389V21.8577C56.3389 22.2689 56.5086 22.5104 56.9626 22.5104C57.1323 22.5104 57.3218 22.4538 57.454 22.3798L57.3394 22.0426C57.2248 22.1166 57.0926 22.1362 56.9978 22.1362C56.8083 22.1362 56.7334 22.023 56.7334 21.8381V21.0353H57.3769V20.6807H57.3791ZM60.7466 20.6415C60.5196 20.6415 60.3675 20.7547 60.2728 20.9026V20.6785H59.8761V22.4712H60.2728V21.4617C60.2728 21.1637 60.405 20.994 60.6518 20.994C60.7268 20.994 60.8215 21.0136 60.8987 21.031L61.0133 20.6568C60.9339 20.6415 60.8215 20.6415 60.7466 20.6415ZM55.6579 20.8286C55.4683 20.6981 55.2039 20.6415 54.9196 20.6415C54.4656 20.6415 54.1636 20.8656 54.1636 21.2202C54.1636 21.5183 54.3906 21.688 54.7873 21.7424L54.9769 21.762C55.184 21.799 55.2986 21.8555 55.2986 21.9491C55.2986 22.0796 55.1466 22.1732 54.8821 22.1732C54.6176 22.1732 54.4083 22.0796 54.276 21.9861L54.0865 22.2841C54.2937 22.4342 54.578 22.5082 54.8623 22.5082C55.3912 22.5082 55.6953 22.2645 55.6953 21.9295C55.6953 21.6119 55.4485 21.4443 55.0716 21.3878L54.8821 21.3682C54.7124 21.3486 54.5802 21.3116 54.5802 21.2007C54.5802 21.0701 54.7124 20.9962 54.9218 20.9962C55.1488 20.9962 55.3758 21.0897 55.4904 21.1463L55.6579 20.8286ZM66.2122 20.6415C65.9852 20.6415 65.8331 20.7547 65.7384 20.9026V20.6785H65.3417V22.4712H65.7384V21.4617C65.7384 21.1637 65.8706 20.994 66.1174 20.994C66.1924 20.994 66.2871 21.0136 66.3643 21.031L66.4789 20.6611C66.4017 20.6415 66.2893 20.6415 66.2122 20.6415ZM61.1433 21.577C61.1433 22.1188 61.5224 22.5104 62.1086 22.5104C62.3731 22.5104 62.5626 22.4538 62.7521 22.3059L62.5626 21.9882C62.4105 22.1014 62.2607 22.1558 62.0888 22.1558C61.767 22.1558 61.54 21.9317 61.54 21.577C61.54 21.2398 61.767 21.0157 62.0888 20.9983C62.2585 20.9983 62.4105 21.0549 62.5626 21.1659L62.7521 20.8482C62.5626 20.6981 62.3731 20.6437 62.1086 20.6437C61.5224 20.6415 61.1433 21.0353 61.1433 21.577ZM64.8127 21.577V20.6807H64.416V20.9048C64.2838 20.7373 64.0943 20.6437 63.8474 20.6437C63.3361 20.6437 62.9394 21.0353 62.9394 21.577C62.9394 22.1188 63.3361 22.5104 63.8474 22.5104C64.1119 22.5104 64.3014 22.4168 64.416 22.2493V22.4734H64.8127V21.577ZM63.356 21.577C63.356 21.2594 63.5631 20.9983 63.9047 20.9983C64.2265 20.9983 64.4535 21.242 64.4535 21.577C64.4535 21.8947 64.2265 22.1558 63.9047 22.1558C63.5653 22.1362 63.356 21.8925 63.356 21.577ZM58.6088 20.6415C58.0799 20.6415 57.7009 21.0157 57.7009 21.5749C57.7009 22.1362 58.0799 22.5082 58.6287 22.5082C58.8931 22.5082 59.1576 22.4342 59.367 22.2645L59.1774 21.9839C59.0254 22.097 58.8358 22.171 58.6485 22.171C58.4017 22.171 58.1571 22.0579 58.0998 21.7424H59.4419C59.4419 21.6858 59.4419 21.6488 59.4419 21.5923C59.4595 21.0157 59.1179 20.6415 58.6088 20.6415ZM58.6088 20.9787C58.8557 20.9787 59.0254 21.1289 59.0628 21.4073H58.1174C58.1548 21.1659 58.3245 20.9787 58.6088 20.9787ZM68.4645 21.577V19.9714H68.0679V20.9048C67.9356 20.7373 67.7461 20.6437 67.4993 20.6437C66.988 20.6437 66.5913 21.0353 66.5913 21.577C66.5913 22.1188 66.988 22.5104 67.4993 22.5104C67.7637 22.5104 67.9532 22.4168 68.0679 22.2493V22.4734H68.4645V21.577ZM67.0078 21.577C67.0078 21.2594 67.215 20.9983 67.5566 20.9983C67.8783 20.9983 68.1053 21.242 68.1053 21.577C68.1053 21.8947 67.8783 22.1558 67.5566 22.1558C67.215 22.1362 67.0078 21.8925 67.0078 21.577ZM53.7273 21.577V20.6807H53.3306V20.9048C53.1983 20.7373 53.0088 20.6437 52.762 20.6437C52.2507 20.6437 51.854 21.0353 51.854 21.577C51.854 22.1188 52.2507 22.5104 52.762 22.5104C53.0264 22.5104 53.216 22.4168 53.3306 22.2493V22.4734H53.7273V21.577ZM52.2529 21.577C52.2529 21.2594 52.46 20.9983 52.8016 20.9983C53.1234 20.9983 53.3504 21.242 53.3504 21.577C53.3504 21.8947 53.1234 22.1558 52.8016 22.1558C52.46 22.1362 52.2529 21.8925 52.2529 21.577Z" fill="black"/>
<path d="M61.4847 7.06567H55.5254V17.6348H61.4847V7.06567Z" fill="#FF5A00"/>
<path d="M55.9222 12.3502C55.9222 10.2029 56.9448 8.29705 58.5139 7.06565C57.3591 6.16929 55.9024 5.62756 54.3134 5.62756C50.5492 5.62756 47.5034 8.63427 47.5034 12.3502C47.5034 16.0662 50.5492 19.0729 54.3134 19.0729C55.9024 19.0729 57.3591 18.5312 58.5139 17.6348C56.9426 16.4208 55.9222 14.4976 55.9222 12.3502Z" fill="#EB001B"/>
<path d="M69.5244 12.3502C69.5244 16.0662 66.4787 19.0729 62.7145 19.0729C61.1255 19.0729 59.6687 18.5312 58.5139 17.6348C60.1029 16.4012 61.1057 14.4976 61.1057 12.3502C61.1057 10.2029 60.0831 8.29705 58.5139 7.06565C59.6665 6.16929 61.1233 5.62756 62.7123 5.62756C66.4787 5.62756 69.5244 8.65385 69.5244 12.3502Z" fill="#F79E1B"/>
</g>
<defs>
<clipPath id="clip0_742_1675">
<rect width="33.7656" height="11.2552" fill="white" transform="translate(6.23438 8.44141)"/>
</clipPath>
<clipPath id="clip1_742_1675">
<rect width="22.0211" height="16.8828" fill="white" transform="translate(47.5034 5.62756)"/>
</clipPath>
</defs>
</svg>
