<svg width="256" height="256" viewBox="0 0 256 256" fill="none" xmlns="http://www.w3.org/2000/svg">
<rect width="256" height="256" fill="#3E61AC"/>
<path d="M188.844 111.314L200.764 114.089C200.771 114.091 200.778 114.095 200.784 114.1C200.79 114.105 200.795 114.111 200.798 114.118C200.802 114.125 200.804 114.132 200.805 114.14C200.806 114.148 200.805 114.155 200.802 114.163L195.221 129.358C195.216 129.37 195.208 129.38 195.196 129.386C195.185 129.392 195.172 129.394 195.159 129.391C195.146 129.388 195.135 129.381 195.127 129.37C195.119 129.36 195.116 129.347 195.116 129.334L196.941 116.856C196.943 116.847 196.941 116.836 196.937 116.827C196.933 116.818 196.926 116.811 196.917 116.806L188.798 111.411C188.787 111.404 188.779 111.393 188.776 111.38C188.772 111.368 188.773 111.354 188.779 111.342C188.785 111.331 188.794 111.321 188.806 111.316C188.818 111.311 188.832 111.31 188.844 111.314Z" fill="#E6D500"/>
<path d="M80.1476 126.338C80.1466 126.401 80.1215 126.461 80.0774 126.506C80.0333 126.55 79.9737 126.577 79.9108 126.579C79.1722 126.585 78.4371 126.681 77.7219 126.866C77.1252 127.002 76.5838 127.316 76.1694 127.766C76.1316 127.811 76.111 127.867 76.1112 127.925V135.164C76.1112 135.195 76.1051 135.226 76.0932 135.254C76.0813 135.283 76.0638 135.309 76.0418 135.331C76.0199 135.353 75.9938 135.371 75.965 135.382C75.9363 135.394 75.9055 135.4 75.8744 135.4H71.7293C71.6979 135.401 71.6667 135.395 71.6376 135.384C71.6084 135.372 71.5818 135.355 71.5594 135.332C71.537 135.31 71.5192 135.284 71.5071 135.255C71.495 135.226 71.4887 135.195 71.4887 135.164V126.796C71.4887 125.741 71.9078 124.729 72.6539 123.983C73.4 123.237 74.4118 122.818 75.4669 122.818C75.5307 122.818 75.5919 122.843 75.6371 122.888C75.6822 122.933 75.7075 122.994 75.7075 123.058V124.223C75.7078 124.274 75.7243 124.324 75.7548 124.365C75.7852 124.406 75.8281 124.436 75.877 124.452C75.9259 124.467 75.9784 124.466 76.0268 124.449C76.0752 124.432 76.117 124.401 76.1461 124.358C76.4865 123.866 76.9139 123.44 77.4075 123.101C78.0371 122.654 78.7892 122.411 79.5615 122.406H79.9497C80.0202 122.406 80.0905 122.414 80.1592 122.43L80.1476 126.338Z" fill="white"/>
<path d="M80.9274 131.108V127.184C80.9284 126.026 81.3893 124.915 82.2087 124.097C83.0282 123.278 84.1392 122.818 85.2976 122.818C85.3614 122.818 85.4226 122.843 85.4677 122.888C85.5128 122.933 85.5382 122.995 85.5382 123.059V130.025C85.5145 130.483 85.6519 130.935 85.9263 131.302C86.05 131.454 86.2074 131.575 86.3859 131.655C86.5645 131.735 86.7593 131.772 86.9548 131.764C87.1997 131.764 87.4436 131.733 87.6806 131.671C87.9493 131.599 88.2011 131.475 88.4219 131.306C88.6861 131.103 88.9189 130.863 89.1128 130.592C89.1443 130.549 89.1619 130.498 89.1632 130.444V127.184C89.1632 126.61 89.2763 126.042 89.496 125.512C89.7156 124.982 90.0376 124.501 90.4435 124.095C90.8493 123.69 91.3311 123.368 91.8613 123.149C92.3915 122.93 92.9597 122.817 93.5334 122.818C93.5972 122.818 93.6584 122.843 93.7036 122.888C93.7487 122.933 93.774 122.995 93.774 123.059V130.332C93.7434 130.642 93.8113 130.955 93.9681 131.224C94.0943 131.372 94.2693 131.468 94.461 131.496C94.5144 131.507 94.5623 131.536 94.5963 131.579C94.6304 131.621 94.6484 131.675 94.6473 131.729V135.222C94.6473 135.279 94.6275 135.333 94.5913 135.376C94.5551 135.42 94.5049 135.449 94.4494 135.459C94.1234 135.521 93.8245 135.571 93.5528 135.602C93.2724 135.641 92.9898 135.662 92.7067 135.665C92.0639 135.698 91.4247 135.548 90.8632 135.234C90.6348 135.086 90.4395 134.892 90.2892 134.665C90.139 134.438 90.0371 134.182 89.9899 133.914L89.8929 133.464C89.3422 134.208 88.6006 134.79 87.7466 135.148C86.8481 135.505 85.8878 135.681 84.9211 135.665C83.6429 135.665 82.661 135.276 81.9753 134.5C81.2728 133.693 80.9274 132.563 80.9274 131.108Z" fill="white"/>
<path d="M104.401 135.645C103.542 135.668 102.691 135.471 101.929 135.074C101.458 134.818 101.042 134.471 100.706 134.054C100.676 134.013 100.634 133.983 100.586 133.968C100.538 133.954 100.486 133.954 100.438 133.971C100.391 133.987 100.35 134.019 100.321 134.06C100.292 134.101 100.278 134.151 100.279 134.201V135.164C100.279 135.195 100.273 135.226 100.261 135.255C100.249 135.284 100.231 135.311 100.208 135.333C100.186 135.355 100.159 135.372 100.13 135.384C100.101 135.395 100.07 135.401 100.039 135.401H96.5183C96.4869 135.401 96.4557 135.395 96.4265 135.384C96.3973 135.372 96.3708 135.355 96.3484 135.333C96.326 135.311 96.3082 135.284 96.296 135.255C96.2839 135.226 96.2776 135.195 96.2776 135.164V122.069C96.2776 120.91 96.7375 119.799 97.5563 118.98C98.375 118.16 99.4856 117.7 100.644 117.698C100.708 117.698 100.769 117.724 100.814 117.769C100.859 117.814 100.885 117.875 100.885 117.939V123.959C100.886 124.006 100.901 124.052 100.928 124.09C100.955 124.129 100.993 124.159 101.037 124.176C101.08 124.193 101.128 124.198 101.174 124.188C101.221 124.178 101.263 124.155 101.296 124.122C101.615 123.729 102.011 123.405 102.46 123.171C103.203 122.792 104.029 122.606 104.863 122.628C105.61 122.621 106.349 122.789 107.021 123.117C107.689 123.447 108.28 123.913 108.756 124.487C109.267 125.105 109.662 125.811 109.92 126.571C110.187 127.41 110.315 128.287 110.3 129.167C110.308 130.042 110.155 130.91 109.85 131.729C109.569 132.487 109.15 133.187 108.616 133.794C108.097 134.375 107.459 134.839 106.745 135.152C106.007 135.479 105.208 135.647 104.401 135.645ZM102.926 131.764C103.323 131.786 103.72 131.724 104.09 131.581C104.389 131.46 104.661 131.28 104.89 131.054C105.118 130.825 105.295 130.552 105.41 130.25C105.537 129.916 105.599 129.56 105.592 129.202C105.598 128.731 105.495 128.265 105.29 127.84C105.104 127.449 104.821 127.112 104.467 126.862C104.114 126.62 103.695 126.494 103.268 126.501C102.938 126.504 102.614 126.584 102.321 126.734C102.005 126.896 101.721 127.113 101.482 127.374C101.241 127.638 101.047 127.941 100.908 128.271C100.895 128.303 100.889 128.337 100.888 128.372V130.429C100.889 130.481 100.907 130.531 100.939 130.572C101.064 130.746 101.206 130.907 101.362 131.054C101.518 131.205 101.693 131.336 101.882 131.442C102.112 131.569 102.359 131.662 102.616 131.717C102.711 131.739 102.809 131.755 102.907 131.764H102.926Z" fill="white"/>
<path d="M111.565 131.108V127.184C111.565 126.026 112.025 124.916 112.844 124.097C113.663 123.278 114.774 122.818 115.932 122.818C115.996 122.818 116.057 122.843 116.102 122.888C116.147 122.933 116.172 122.995 116.172 123.059V130.025C116.149 130.483 116.286 130.935 116.56 131.302C116.684 131.454 116.842 131.575 117.02 131.655C117.199 131.735 117.393 131.772 117.589 131.764C117.835 131.764 118.08 131.733 118.319 131.671C118.586 131.599 118.837 131.475 119.056 131.306C119.321 131.104 119.554 130.863 119.747 130.592C119.778 130.549 119.796 130.498 119.797 130.444V127.184C119.797 126.026 120.257 124.916 121.076 124.097C121.895 123.278 123.006 122.818 124.164 122.818C124.228 122.818 124.289 122.843 124.334 122.888C124.379 122.933 124.404 122.995 124.404 123.059V130.332C124.376 130.642 124.444 130.954 124.598 131.224C124.725 131.371 124.9 131.467 125.091 131.496C125.145 131.507 125.193 131.536 125.227 131.579C125.261 131.621 125.279 131.675 125.278 131.729V135.222C125.278 135.279 125.259 135.334 125.223 135.377C125.186 135.421 125.136 135.45 125.08 135.459C124.754 135.521 124.455 135.571 124.187 135.602C123.905 135.641 123.621 135.662 123.337 135.665C122.694 135.697 122.055 135.548 121.493 135.234C121.266 135.084 121.072 134.89 120.922 134.663C120.771 134.437 120.669 134.182 120.62 133.914L120.527 133.464C119.974 134.208 119.231 134.789 118.377 135.148C117.48 135.505 116.521 135.681 115.555 135.665C114.274 135.665 113.293 135.276 112.609 134.5C111.907 133.693 111.565 132.563 111.565 131.108Z" fill="white"/>
<path d="M135.699 134.477C135.711 134.532 135.704 134.59 135.679 134.64C135.653 134.69 135.611 134.73 135.559 134.752C135.194 134.904 134.806 135.044 134.395 135.172C133.919 135.326 133.433 135.443 132.939 135.521C132.463 135.602 131.982 135.643 131.499 135.645C130.844 135.654 130.193 135.537 129.582 135.3C129.008 135.077 128.519 134.679 128.185 134.163C127.807 133.51 127.627 132.762 127.665 132.008V126.524C127.665 126.461 127.639 126.399 127.594 126.354C127.549 126.309 127.488 126.284 127.424 126.284H126.329C126.266 126.284 126.204 126.258 126.159 126.213C126.114 126.168 126.089 126.107 126.089 126.043V123.058C126.089 122.995 126.114 122.933 126.159 122.888C126.204 122.843 126.266 122.818 126.329 122.818H127.424C127.458 122.821 127.493 122.817 127.525 122.806C127.558 122.795 127.587 122.777 127.612 122.754C127.637 122.73 127.657 122.701 127.67 122.67C127.683 122.638 127.689 122.604 127.688 122.569C127.688 122.075 127.785 121.586 127.974 121.129C128.164 120.673 128.441 120.258 128.791 119.909C129.14 119.559 129.555 119.283 130.012 119.094C130.469 118.905 130.958 118.808 131.453 118.809H132.058C132.089 118.809 132.121 118.815 132.15 118.827C132.179 118.839 132.205 118.857 132.227 118.879C132.249 118.902 132.266 118.928 132.278 118.957C132.29 118.987 132.295 119.018 132.295 119.049V122.569C132.295 122.633 132.32 122.694 132.365 122.74C132.41 122.785 132.472 122.81 132.535 122.81H134.554C134.585 122.81 134.617 122.816 134.646 122.828C134.675 122.84 134.701 122.858 134.724 122.881C134.746 122.903 134.764 122.929 134.776 122.959C134.788 122.988 134.794 123.019 134.794 123.051V126.063C134.795 126.094 134.789 126.126 134.777 126.155C134.765 126.185 134.747 126.211 134.725 126.234C134.703 126.256 134.676 126.274 134.646 126.286C134.617 126.298 134.585 126.304 134.554 126.303H132.535C132.472 126.303 132.41 126.328 132.365 126.374C132.32 126.419 132.295 126.48 132.295 126.544V130.371C132.279 130.524 132.294 130.678 132.34 130.825C132.386 130.972 132.462 131.108 132.563 131.224C132.765 131.397 133.027 131.484 133.292 131.469C133.555 131.464 133.816 131.423 134.068 131.349C134.27 131.29 134.476 131.228 134.682 131.155C134.714 131.142 134.748 131.137 134.782 131.139C134.817 131.141 134.85 131.15 134.88 131.166C134.911 131.183 134.937 131.205 134.958 131.233C134.978 131.26 134.993 131.292 135 131.325L135.699 134.477Z" fill="white"/>
<path d="M143.453 135.645C142.426 135.664 141.405 135.486 140.445 135.121C139.642 134.813 138.913 134.339 138.305 133.731C137.697 133.122 137.224 132.393 136.917 131.589C136.617 130.806 136.464 129.975 136.467 129.136C136.465 128.292 136.617 127.454 136.917 126.664C137.214 125.883 137.668 125.173 138.252 124.576C138.875 123.952 139.622 123.465 140.445 123.148C142.394 122.449 144.524 122.449 146.473 123.148C147.288 123.469 148.028 123.955 148.646 124.576C149.229 125.174 149.683 125.884 149.981 126.664C150.28 127.454 150.431 128.292 150.428 129.136C150.432 129.975 150.28 130.806 149.981 131.589C149.674 132.391 149.202 133.119 148.597 133.727C147.991 134.335 147.265 134.81 146.465 135.121C145.504 135.487 144.481 135.665 143.453 135.645ZM141.198 129.136C141.186 129.621 141.286 130.101 141.489 130.541C141.664 130.914 141.942 131.23 142.29 131.451C142.638 131.671 143.041 131.789 143.453 131.789C143.865 131.789 144.269 131.671 144.616 131.451C144.964 131.23 145.242 130.914 145.417 130.541C145.609 130.096 145.708 129.617 145.708 129.132C145.708 128.648 145.609 128.168 145.417 127.724C145.241 127.352 144.963 127.038 144.615 126.818C144.267 126.598 143.864 126.481 143.453 126.481C143.042 126.481 142.639 126.598 142.291 126.818C141.944 127.038 141.665 127.352 141.489 127.724C141.285 128.166 141.185 128.649 141.198 129.136Z" fill="white"/>
<path d="M152.16 135.164V124.149C152.16 122.567 152.788 121.05 153.907 119.931C155.026 118.812 156.543 118.184 158.125 118.184H159.58C160.386 118.175 161.182 118.35 161.909 118.696C162.609 119.024 163.236 119.49 163.753 120.066C164.268 120.635 164.675 121.292 164.956 122.007C165.234 122.692 165.377 123.425 165.379 124.165C165.379 125.173 165.132 126.167 164.658 127.057C164.184 127.948 163.499 128.709 162.662 129.272C161.783 129.854 160.747 130.154 159.693 130.13H157.12C157.056 130.13 156.995 130.155 156.95 130.2C156.904 130.246 156.879 130.307 156.879 130.371V135.179C156.879 135.242 156.854 135.302 156.81 135.347C156.765 135.391 156.705 135.416 156.642 135.416H152.4C152.368 135.417 152.335 135.41 152.305 135.398C152.274 135.385 152.247 135.366 152.225 135.343C152.202 135.319 152.184 135.291 152.173 135.26C152.162 135.229 152.157 135.196 152.16 135.164ZM156.887 125.752C156.887 125.816 156.912 125.877 156.957 125.922C157.003 125.967 157.064 125.993 157.128 125.993H159.386C159.585 125.992 159.78 125.933 159.945 125.822C160.148 125.676 160.303 125.473 160.392 125.24C160.527 124.892 160.589 124.521 160.574 124.149C160.593 123.763 160.522 123.378 160.368 123.023C160.261 122.789 160.083 122.594 159.86 122.465C159.677 122.365 159.474 122.311 159.266 122.305H157.128C157.096 122.305 157.065 122.312 157.035 122.324C157.006 122.336 156.98 122.354 156.957 122.376C156.935 122.398 156.917 122.425 156.905 122.454C156.893 122.483 156.887 122.515 156.887 122.546V125.752Z" fill="white"/>
<path d="M165.79 131.617C165.779 130.816 166.028 130.034 166.501 129.389C167 128.719 167.67 128.196 168.441 127.875C169.344 127.497 170.315 127.31 171.294 127.328C171.769 127.325 172.243 127.365 172.71 127.448C173.114 127.513 173.506 127.636 173.875 127.813V127.425C173.892 127.185 173.854 126.945 173.763 126.723C173.673 126.501 173.531 126.302 173.351 126.144C172.851 125.822 172.259 125.675 171.666 125.725C170.984 125.721 170.307 125.841 169.668 126.078C169.064 126.311 168.487 126.606 167.944 126.959C167.916 126.978 167.883 126.99 167.85 126.995C167.816 127 167.781 126.998 167.748 126.988C167.716 126.979 167.685 126.962 167.659 126.94C167.634 126.917 167.613 126.889 167.599 126.858L166.47 124.44C166.446 124.386 166.442 124.326 166.459 124.27C166.476 124.213 166.513 124.165 166.563 124.134C167.348 123.648 168.197 123.274 169.085 123.024C170.077 122.754 171.101 122.624 172.128 122.635C174.149 122.635 175.713 123.081 176.821 123.971C177.928 124.861 178.482 126.183 178.482 127.937V130.332C178.454 130.641 178.521 130.951 178.676 131.221C178.803 131.366 178.978 131.461 179.169 131.488C179.222 131.499 179.27 131.529 179.304 131.571C179.338 131.614 179.356 131.667 179.355 131.721V135.214C179.354 135.27 179.335 135.324 179.3 135.367C179.264 135.41 179.215 135.44 179.161 135.451C178.861 135.513 178.574 135.56 178.299 135.591C178.006 135.63 177.71 135.651 177.414 135.653C176.758 135.694 176.104 135.539 175.536 135.207C175.098 134.888 174.798 134.415 174.698 133.883L174.601 133.421C174.078 134.114 173.407 134.681 172.637 135.082C171.902 135.461 171.088 135.656 170.261 135.653C169.47 135.665 168.687 135.485 167.979 135.129C167.326 134.802 166.774 134.305 166.38 133.689C165.987 133.07 165.782 132.35 165.79 131.617ZM173.262 131.888C173.425 131.781 173.571 131.65 173.696 131.5C173.802 131.375 173.862 131.218 173.867 131.054V130.332C173.868 130.281 173.852 130.231 173.822 130.19C173.792 130.148 173.749 130.118 173.7 130.103C173.465 130.028 173.225 129.97 172.982 129.928C172.691 129.87 172.394 129.839 172.097 129.835C171.604 129.818 171.117 129.953 170.704 130.223C170.532 130.325 170.39 130.469 170.29 130.642C170.19 130.814 170.136 131.01 170.133 131.209C170.131 131.419 170.198 131.623 170.324 131.791C170.463 131.974 170.647 132.117 170.859 132.206C171.105 132.31 171.369 132.36 171.635 132.354C171.927 132.351 172.217 132.309 172.497 132.23C172.768 132.153 173.025 132.037 173.262 131.884V131.888Z" fill="white"/>
<path d="M193.25 119.364C193.294 119.348 193.341 119.346 193.386 119.356C193.431 119.367 193.472 119.391 193.504 119.425C193.536 119.458 193.558 119.5 193.567 119.546C193.575 119.592 193.57 119.639 193.553 119.682C193.452 119.942 193.359 120.217 193.324 120.303C193.172 120.66 193.029 121.021 192.897 121.386C192.579 122.278 192.287 123.183 191.996 124.102C190.615 128.372 189.28 134.997 188.057 139.309C187.828 140.106 187.422 140.841 186.869 141.459C186.317 142.082 185.637 142.58 184.876 142.918C184.114 143.256 183.289 143.427 182.456 143.419C182.054 143.42 181.653 143.384 181.257 143.31C180.909 143.247 180.567 143.151 180.236 143.023C180.191 143.005 180.152 142.974 180.124 142.934C180.097 142.894 180.082 142.847 180.081 142.798V139.363C180.081 139.326 180.09 139.289 180.107 139.255C180.124 139.222 180.149 139.193 180.179 139.171C180.209 139.149 180.244 139.134 180.281 139.127C180.318 139.121 180.356 139.123 180.392 139.134C180.644 139.216 180.885 139.282 181.11 139.336C181.392 139.404 181.681 139.439 181.971 139.441C182.259 139.448 182.544 139.385 182.802 139.258C183.034 139.133 183.223 138.94 183.341 138.703C183.458 138.467 183.539 135.855 183.574 135.521C183.574 135.482 183.574 137.772 183.574 137.737L180.593 127.258C180.416 126.773 180.354 126.254 180.413 125.741C180.472 125.229 180.65 124.737 180.934 124.306C181.217 123.874 181.597 123.515 182.045 123.258C182.492 123 182.993 122.851 183.508 122.822C183.562 122.82 183.615 122.837 183.658 122.868C183.702 122.9 183.734 122.945 183.749 122.996L185.864 129.944C185.879 129.994 185.909 130.037 185.951 130.069C185.992 130.1 186.043 130.117 186.095 130.117C186.147 130.117 186.198 130.1 186.239 130.069C186.281 130.037 186.311 129.994 186.326 129.944L186.935 127.483C187.743 124.203 189.955 120.598 193.25 119.364Z" fill="white"/>
<path d="M70.5026 118.626C69.8156 119.403 69.6215 122.507 69.575 124.836V127.475C69.5837 128.526 69.4359 129.573 69.1364 130.58C68.8663 131.495 68.4207 132.347 67.8245 133.091C67.2246 133.821 66.4577 134.394 65.589 134.764C64.5676 135.182 63.4709 135.384 62.3676 135.358C61.2418 135.388 60.123 135.173 59.088 134.729C58.2139 134.343 57.4467 133.751 56.8525 133.002C56.2675 132.253 55.8363 131.396 55.5833 130.479C55.3167 129.505 55.1861 128.498 55.1952 127.487V122.931C55.1962 121.964 55.5805 121.038 56.2638 120.355C56.947 119.671 57.8734 119.287 58.8396 119.286H59.1967C59.2996 119.286 59.3984 119.327 59.4711 119.4C59.5439 119.473 59.5848 119.571 59.5848 119.674V127.468C59.5834 127.973 59.6368 128.476 59.7439 128.97C59.8371 129.419 60.0036 129.851 60.2369 130.247C60.4495 130.607 60.7465 130.911 61.1024 131.131C61.494 131.359 61.9419 131.472 62.3948 131.457C62.8575 131.473 63.3155 131.36 63.7183 131.131C64.0789 130.912 64.377 130.603 64.5838 130.235C64.8092 129.833 64.9716 129.398 65.065 128.946C65.1714 128.461 65.2247 127.965 65.2242 127.468V123.586C65.2242 123.497 65.2242 123.412 65.2242 123.326C65.3445 119.756 69.377 118.719 70.4637 118.506C70.4797 118.501 70.497 118.502 70.512 118.51C70.5269 118.518 70.5382 118.531 70.5433 118.547C70.5485 118.563 70.5471 118.58 70.5394 118.595C70.5318 118.61 70.5185 118.621 70.5026 118.626Z" fill="white"/>
<path d="M82.0837 142.771V143.159H78.9361V138.482H82.041V138.87H79.4135V140.562H81.7034V140.95H79.4135V142.74L82.0837 142.771Z" fill="white"/>
<path d="M88.0766 143.179H87.6264V141.273C87.6471 140.968 87.5812 140.662 87.4362 140.392C87.3736 140.3 87.2881 140.225 87.1882 140.176C87.0882 140.126 86.9772 140.103 86.8657 140.109C86.6075 140.109 86.3592 140.208 86.171 140.385C85.9625 140.575 85.813 140.822 85.7402 141.095V143.179H85.2899V141.273C85.3123 140.967 85.2478 140.66 85.1037 140.388C85.0423 140.296 84.9575 140.221 84.858 140.172C84.7585 140.123 84.6477 140.101 84.537 140.109C84.2811 140.111 84.035 140.208 83.8461 140.381C83.6335 140.567 83.482 140.813 83.4115 141.087V143.179H82.9612V139.756H83.3688V140.532C83.4998 140.282 83.6921 140.07 83.9277 139.915C84.1534 139.77 84.4164 139.695 84.6845 139.698C84.9378 139.686 85.1857 139.774 85.3753 139.942C85.5558 140.109 85.6713 140.335 85.7014 140.579C85.8329 140.315 86.0292 140.089 86.2719 139.923C86.4937 139.772 86.7567 139.693 87.0248 139.698C87.1952 139.692 87.3642 139.728 87.5177 139.802C87.6495 139.872 87.7606 139.975 87.8399 140.101C87.9267 140.245 87.9872 140.402 88.0184 140.567C88.0589 140.766 88.0784 140.969 88.0766 141.172V143.179Z" fill="white"/>
<path d="M90.9099 143.244C90.6343 143.249 90.3637 143.171 90.1336 143.019C89.9162 142.879 89.7331 142.692 89.598 142.472V144.583H89.1478V139.755H89.5359V140.423C89.6728 140.207 89.8608 140.028 90.0832 139.903C90.3046 139.769 90.5584 139.7 90.8167 139.701C91.0425 139.699 91.2657 139.749 91.4688 139.848C91.6631 139.945 91.838 140.077 91.985 140.236C92.1299 140.405 92.2441 140.598 92.3226 140.807C92.4048 141.017 92.4469 141.241 92.4468 141.467C92.4493 141.771 92.383 142.072 92.2528 142.348C92.1286 142.607 91.9402 142.83 91.7055 142.996C91.4713 143.157 91.194 143.243 90.9099 143.244ZM90.7857 142.856C90.9621 142.859 91.1367 142.819 91.2941 142.74C91.4443 142.665 91.5767 142.559 91.6822 142.429C91.7906 142.298 91.8735 142.148 91.9267 141.987C91.9842 141.825 92.0131 141.654 92.0121 141.482C92.0135 141.303 91.9819 141.126 91.919 140.958C91.8563 140.794 91.7627 140.644 91.6434 140.516C91.5326 140.394 91.4012 140.293 91.2553 140.217C91.0989 140.143 90.9278 140.104 90.7546 140.104C90.6328 140.106 90.5121 140.129 90.3976 140.17C90.2712 140.215 90.1522 140.277 90.0444 140.357C89.9375 140.432 89.8432 140.524 89.7649 140.628C89.6903 140.721 89.642 140.832 89.6252 140.95V141.975C89.6932 142.136 89.7892 142.283 89.9085 142.41C90.0252 142.537 90.1648 142.641 90.3199 142.716C90.4631 142.795 90.6224 142.84 90.7857 142.848V142.856Z" fill="white"/>
<path d="M94.83 143.244C94.5937 143.247 94.3595 143.199 94.143 143.105C93.9382 143.012 93.7536 142.88 93.5996 142.716C93.4487 142.552 93.329 142.361 93.2464 142.154C93.081 141.716 93.081 141.233 93.2464 140.795C93.328 140.585 93.4492 140.393 93.6035 140.229C93.7589 140.067 93.9432 139.935 94.1469 139.841C94.3622 139.746 94.595 139.699 94.83 139.701C95.0638 139.698 95.2955 139.746 95.5092 139.841C95.7134 139.934 95.8979 140.066 96.0525 140.229C96.2055 140.394 96.3266 140.586 96.4096 140.795C96.575 141.233 96.575 141.716 96.4096 142.154C96.327 142.361 96.2073 142.552 96.0564 142.716C95.9025 142.88 95.7178 143.012 95.5131 143.105C95.2979 143.199 95.065 143.247 94.83 143.244ZM93.5763 141.486C93.5739 141.727 93.6327 141.965 93.7471 142.177C93.8523 142.377 94.0074 142.547 94.1973 142.67C94.3845 142.789 94.602 142.853 94.8241 142.853C95.0463 142.853 95.2638 142.789 95.451 142.67C95.6424 142.544 95.7987 142.372 95.905 142.169C96.0217 141.955 96.0818 141.715 96.0797 141.471C96.0819 141.23 96.0217 140.994 95.905 140.784C95.7987 140.581 95.6424 140.409 95.451 140.283C95.2642 140.164 95.0475 140.101 94.8261 140.101C94.602 140.098 94.3826 140.165 94.1973 140.291C94.0087 140.418 93.8541 140.59 93.7471 140.791C93.6333 141.005 93.5746 141.244 93.5763 141.486Z" fill="white"/>
<path d="M101.626 139.755H102.072L100.598 143.179H100.209L99.4914 141.475L98.7773 143.179H98.3892L96.9105 139.755H97.3452L98.5988 142.717L99.2353 141.164L98.6531 139.748H99.0412L99.4759 140.861L99.9184 139.748H100.306L99.7437 141.176L100.376 142.728L101.626 139.755Z" fill="white"/>
<path d="M104.16 143.244C103.924 143.246 103.69 143.198 103.473 143.105C103.268 143.011 103.082 142.88 102.926 142.717C102.773 142.549 102.653 142.356 102.569 142.146C102.481 141.926 102.436 141.692 102.437 141.455C102.434 141.149 102.51 140.847 102.658 140.578C102.804 140.316 103.015 140.097 103.271 139.942C103.537 139.78 103.842 139.697 104.152 139.701C104.466 139.693 104.775 139.778 105.041 139.945C105.292 140.102 105.498 140.322 105.639 140.582C105.784 140.849 105.858 141.148 105.856 141.451V141.552C105.859 141.578 105.859 141.604 105.856 141.63H102.914C102.933 141.86 103.005 142.084 103.124 142.282C103.235 142.468 103.391 142.622 103.578 142.732C103.761 142.844 103.972 142.903 104.187 142.903C104.411 142.903 104.631 142.843 104.824 142.728C105.01 142.631 105.158 142.474 105.243 142.282L105.631 142.387C105.555 142.556 105.444 142.706 105.305 142.829C105.155 142.965 104.979 143.071 104.789 143.14C104.587 143.212 104.374 143.247 104.16 143.244ZM102.895 141.304H105.433C105.422 141.073 105.352 140.849 105.231 140.652C105.118 140.469 104.963 140.317 104.777 140.209C104.589 140.103 104.376 140.048 104.16 140.05C103.945 140.048 103.734 140.103 103.547 140.209C103.361 140.318 103.207 140.471 103.097 140.656C102.977 140.852 102.907 141.074 102.895 141.304Z" fill="white"/>
<path d="M108.398 140.136C108.121 140.143 107.851 140.231 107.622 140.388C107.396 140.548 107.229 140.777 107.145 141.04V143.179H106.698V139.755H107.118V140.567C107.226 140.336 107.388 140.135 107.591 139.981C107.768 139.836 107.984 139.748 108.212 139.728H108.329H108.414L108.398 140.136Z" fill="white"/>
<path d="M109.128 139.022V138.362H109.578V139.022H109.128ZM109.128 143.178V139.74H109.578V143.178H109.128Z" fill="white"/>
<path d="M113.587 143.178H113.141V141.273C113.162 140.967 113.1 140.662 112.963 140.388C112.902 140.295 112.818 140.221 112.719 140.172C112.62 140.123 112.51 140.101 112.4 140.108C112.219 140.112 112.041 140.155 111.88 140.237C111.708 140.322 111.555 140.441 111.43 140.586C111.298 140.729 111.201 140.9 111.146 141.086V143.178H110.7V139.755H111.107V140.531C111.201 140.364 111.325 140.216 111.472 140.093C111.623 139.967 111.795 139.868 111.981 139.802C112.168 139.732 112.367 139.696 112.567 139.697C112.733 139.692 112.899 139.728 113.048 139.802C113.179 139.872 113.288 139.975 113.366 140.101C113.45 140.245 113.508 140.402 113.537 140.566C113.573 140.766 113.59 140.969 113.587 141.172V143.178Z" fill="white"/>
<path d="M116.044 143.244C115.821 143.247 115.601 143.198 115.4 143.101C115.205 143.007 115.03 142.875 114.888 142.713C114.742 142.548 114.629 142.357 114.554 142.15C114.475 141.941 114.434 141.721 114.434 141.498C114.432 141.265 114.471 141.034 114.55 140.815C114.624 140.606 114.736 140.413 114.88 140.244C115.019 140.081 115.191 139.949 115.384 139.856C115.586 139.758 115.808 139.709 116.033 139.712C116.308 139.704 116.579 139.782 116.809 139.934C117.026 140.081 117.213 140.268 117.36 140.485V139.767H117.748V143.206C117.758 143.49 117.678 143.769 117.519 144.005C117.365 144.224 117.152 144.394 116.906 144.498C116.639 144.608 116.352 144.664 116.064 144.661C115.734 144.675 115.406 144.603 115.113 144.451C114.874 144.311 114.671 144.117 114.519 143.885L114.798 143.664C114.928 143.875 115.117 144.044 115.342 144.149C115.568 144.253 115.814 144.306 116.064 144.304C116.275 144.307 116.486 144.266 116.681 144.184C116.862 144.11 117.018 143.986 117.131 143.827C117.246 143.648 117.305 143.438 117.298 143.225V142.542C117.164 142.759 116.977 142.938 116.754 143.062C116.537 143.183 116.293 143.246 116.044 143.244ZM116.172 142.856C116.305 142.856 116.437 142.831 116.56 142.783C116.685 142.736 116.801 142.67 116.906 142.588C117.007 142.512 117.096 142.42 117.17 142.317C117.235 142.224 117.28 142.118 117.302 142.006V140.943C117.172 140.612 116.921 140.344 116.599 140.194C116.448 140.122 116.282 140.085 116.114 140.085C115.933 140.083 115.754 140.126 115.594 140.209C115.442 140.286 115.309 140.396 115.206 140.531C115.099 140.666 115.018 140.818 114.965 140.982C114.908 141.144 114.879 141.314 114.88 141.486C114.879 141.665 114.912 141.843 114.977 142.01C115.043 142.172 115.136 142.322 115.252 142.453C115.366 142.579 115.505 142.681 115.66 142.751C115.824 142.829 116.003 142.869 116.184 142.868L116.172 142.856Z" fill="white"/>
<path d="M120.702 143.179V138.482H122.406C122.853 138.467 123.297 138.576 123.686 138.797C124.021 138.997 124.291 139.289 124.463 139.639C124.634 140.003 124.721 140.401 124.719 140.803C124.73 141.233 124.632 141.659 124.435 142.041C124.253 142.386 123.973 142.671 123.632 142.86C123.257 143.062 122.835 143.162 122.409 143.151L120.702 143.179ZM123.807 140.85C123.811 140.573 123.754 140.299 123.64 140.046C123.538 139.824 123.373 139.637 123.166 139.507C122.939 139.371 122.678 139.304 122.413 139.313H121.637V142.364H122.413C122.671 142.379 122.927 142.314 123.147 142.179C123.368 142.043 123.541 141.844 123.644 141.607C123.753 141.363 123.809 141.098 123.807 140.83V140.85Z" fill="#E6D500"/>
<path d="M125.452 139.231V138.362H126.33V139.231H125.452ZM125.452 143.178V139.72H126.33V143.178H125.452Z" fill="#E6D500"/>
<path d="M128.62 143.245C128.402 143.247 128.187 143.199 127.991 143.105C127.8 143.013 127.632 142.881 127.498 142.717C127.359 142.551 127.251 142.362 127.18 142.158C127.104 141.942 127.066 141.715 127.067 141.486C127.065 141.247 127.104 141.01 127.183 140.784C127.257 140.575 127.369 140.381 127.513 140.213C127.653 140.048 127.826 139.916 128.022 139.825C128.227 139.733 128.449 139.687 128.674 139.689C128.92 139.683 129.163 139.745 129.376 139.868C129.58 139.986 129.753 140.151 129.881 140.349V139.744H130.657V143.012C130.671 143.332 130.582 143.649 130.405 143.916C130.235 144.161 129.999 144.353 129.726 144.471C129.414 144.607 129.076 144.673 128.736 144.665C128.409 144.674 128.084 144.611 127.785 144.479C127.526 144.352 127.298 144.171 127.117 143.947L127.599 143.477C127.733 143.644 127.905 143.777 128.099 143.866C128.299 143.957 128.516 144.004 128.736 144.001C128.911 144.003 129.085 143.971 129.248 143.908C129.405 143.85 129.54 143.746 129.636 143.609C129.736 143.451 129.785 143.265 129.776 143.078V142.643C129.668 142.841 129.501 143.001 129.299 143.101C129.088 143.204 128.854 143.254 128.62 143.245ZM128.914 142.538C129.011 142.539 129.107 142.524 129.198 142.492C129.283 142.46 129.364 142.419 129.438 142.367C129.513 142.313 129.579 142.249 129.636 142.177C129.69 142.108 129.732 142.031 129.761 141.948V141.129C129.715 140.997 129.642 140.875 129.547 140.772C129.457 140.674 129.349 140.594 129.229 140.535C129.115 140.482 128.99 140.454 128.864 140.454C128.736 140.452 128.609 140.481 128.495 140.539C128.385 140.597 128.288 140.678 128.212 140.776C128.131 140.88 128.068 140.997 128.026 141.122C127.983 141.247 127.961 141.378 127.96 141.51C127.959 141.643 127.985 141.775 128.037 141.898C128.084 142.018 128.153 142.128 128.239 142.224C128.325 142.318 128.429 142.393 128.546 142.445C128.661 142.501 128.787 142.532 128.914 142.538Z" fill="#E6D500"/>
<path d="M131.569 139.231V138.362H132.446V139.231H131.569ZM131.569 143.178V139.72H132.446V143.178H131.569Z" fill="#E6D500"/>
<path d="M135.47 143.008L135.194 143.117C135.09 143.15 134.978 143.181 134.856 143.21C134.736 143.233 134.614 143.245 134.491 143.245C134.336 143.247 134.181 143.218 134.037 143.159C133.903 143.105 133.789 143.01 133.711 142.888C133.623 142.741 133.58 142.573 133.587 142.402V140.423H133.121V139.752H133.572V138.63H134.464V139.752H135.19V140.423H134.48V142.096C134.475 142.141 134.48 142.187 134.495 142.23C134.51 142.273 134.535 142.312 134.567 142.345C134.598 142.377 134.637 142.403 134.68 142.419C134.722 142.435 134.768 142.441 134.814 142.437C134.904 142.436 134.993 142.419 135.078 142.387C135.167 142.352 135.241 142.325 135.295 142.298L135.47 143.008Z" fill="#E6D500"/>
<path d="M135.839 142.169C135.834 141.959 135.901 141.754 136.029 141.587C136.165 141.414 136.344 141.28 136.549 141.199C136.796 141.101 137.06 141.053 137.325 141.059C137.473 141.059 137.621 141.071 137.768 141.094C137.901 141.111 138.032 141.146 138.156 141.199V141.009C138.162 140.918 138.148 140.826 138.115 140.741C138.082 140.656 138.031 140.579 137.966 140.516C137.802 140.388 137.598 140.326 137.391 140.341C137.204 140.34 137.018 140.375 136.844 140.442C136.653 140.517 136.471 140.612 136.3 140.725L136.025 140.151C136.237 140.002 136.472 139.887 136.72 139.809C136.966 139.738 137.22 139.701 137.476 139.701C137.896 139.672 138.311 139.801 138.641 140.062C138.782 140.195 138.892 140.357 138.963 140.538C139.034 140.718 139.064 140.912 139.052 141.106V142.192C139.046 142.261 139.063 142.33 139.103 142.386C139.123 142.408 139.148 142.426 139.175 142.439C139.202 142.452 139.232 142.459 139.262 142.46V143.178L139.048 143.213C138.994 143.219 138.94 143.219 138.885 143.213C138.746 143.22 138.609 143.179 138.497 143.097C138.41 143.026 138.353 142.925 138.338 142.813V142.635C138.184 142.825 137.989 142.978 137.768 143.081C137.555 143.184 137.321 143.239 137.084 143.24C136.87 143.244 136.658 143.195 136.467 143.097C136.292 143.007 136.144 142.873 136.037 142.708C135.92 142.551 135.851 142.364 135.839 142.169ZM137.989 142.336C138.037 142.293 138.078 142.242 138.109 142.185C138.136 142.143 138.152 142.095 138.156 142.045V141.703C138.045 141.659 137.931 141.625 137.814 141.602C137.699 141.58 137.582 141.568 137.465 141.567C137.266 141.561 137.07 141.61 136.898 141.711C136.83 141.75 136.774 141.807 136.735 141.875C136.696 141.943 136.676 142.021 136.677 142.099C136.677 142.187 136.702 142.274 136.751 142.348C136.8 142.429 136.872 142.495 136.956 142.538C137.061 142.587 137.175 142.611 137.29 142.608C137.423 142.608 137.555 142.582 137.678 142.53C137.788 142.484 137.887 142.418 137.973 142.336H137.989Z" fill="#E6D500"/>
<path d="M139.973 138.362H140.858V142.076C140.844 142.191 140.873 142.307 140.939 142.402C140.966 142.43 140.999 142.453 141.035 142.467C141.071 142.482 141.11 142.489 141.149 142.488C141.226 142.487 141.303 142.477 141.378 142.46C141.445 142.443 141.51 142.418 141.572 142.387L141.692 143.066C141.56 143.127 141.42 143.171 141.277 143.198C141.135 143.227 140.991 143.243 140.846 143.244C140.73 143.252 140.613 143.236 140.502 143.198C140.392 143.16 140.29 143.101 140.202 143.023C140.123 142.94 140.062 142.842 140.023 142.734C139.983 142.627 139.966 142.513 139.973 142.398V138.362Z" fill="#E6D500"/>
<path d="M143.827 143.178V138.482H145.814C146.021 138.48 146.225 138.525 146.412 138.614C146.591 138.7 146.751 138.821 146.881 138.971C147.014 139.117 147.118 139.287 147.188 139.472C147.261 139.652 147.3 139.844 147.3 140.038C147.299 140.298 147.238 140.555 147.122 140.787C147.006 141.022 146.832 141.224 146.617 141.374C146.388 141.525 146.117 141.603 145.841 141.595H144.727V143.147L143.827 143.178ZM144.739 140.811H145.795C145.903 140.812 146.009 140.78 146.097 140.718C146.191 140.65 146.264 140.557 146.307 140.45C146.357 140.327 146.382 140.195 146.381 140.062C146.386 139.919 146.356 139.778 146.291 139.65C146.24 139.546 146.161 139.457 146.062 139.394C145.971 139.335 145.865 139.304 145.756 139.305H144.739V140.811Z" fill="#E6D500"/>
<path d="M147.7 142.169C147.696 141.959 147.763 141.754 147.891 141.587C148.027 141.414 148.206 141.28 148.411 141.199C148.658 141.101 148.921 141.054 149.187 141.059C149.335 141.06 149.483 141.071 149.629 141.094C149.763 141.111 149.893 141.147 150.017 141.199V141.009C150.022 140.918 150.008 140.827 149.975 140.742C149.942 140.657 149.892 140.58 149.827 140.516C149.664 140.388 149.459 140.326 149.253 140.341C149.066 140.341 148.88 140.375 148.706 140.442C148.515 140.517 148.333 140.612 148.162 140.725L147.871 140.151C148.084 140.002 148.318 139.887 148.566 139.809C148.812 139.738 149.067 139.701 149.323 139.701C149.742 139.671 150.158 139.8 150.487 140.062C150.629 140.194 150.74 140.357 150.812 140.537C150.884 140.718 150.915 140.912 150.902 141.106V142.193C150.896 142.261 150.914 142.33 150.953 142.387C150.973 142.409 150.998 142.427 151.025 142.439C151.052 142.452 151.082 142.459 151.112 142.46V143.178L150.898 143.213C150.844 143.219 150.79 143.219 150.735 143.213C150.597 143.22 150.46 143.179 150.347 143.097C150.26 143.026 150.203 142.925 150.188 142.814L150.169 142.635C150.015 142.825 149.82 142.978 149.598 143.081C149.385 143.185 149.152 143.239 148.915 143.24C148.701 143.245 148.489 143.195 148.298 143.097C148.123 143.007 147.975 142.873 147.867 142.709C147.76 142.549 147.702 142.361 147.7 142.169ZM149.851 142.336C149.899 142.293 149.94 142.242 149.971 142.185C149.998 142.143 150.014 142.095 150.017 142.045V141.703C149.907 141.659 149.793 141.625 149.676 141.603C149.56 141.58 149.441 141.568 149.323 141.568C149.125 141.561 148.93 141.611 148.76 141.711C148.692 141.751 148.636 141.807 148.597 141.875C148.558 141.944 148.538 142.021 148.539 142.099C148.538 142.188 148.564 142.274 148.612 142.348C148.662 142.429 148.733 142.495 148.818 142.538C148.922 142.587 149.037 142.611 149.152 142.608C149.285 142.608 149.417 142.582 149.54 142.53C149.655 142.485 149.76 142.42 149.851 142.336Z" fill="#E6D500"/>
<path d="M151.799 143.85C151.871 143.869 151.945 143.883 152.02 143.892L152.195 143.916C152.269 143.919 152.343 143.897 152.404 143.854C152.475 143.794 152.529 143.718 152.563 143.632C152.631 143.49 152.687 143.342 152.73 143.19L151.364 139.755H152.28L153.211 142.29L154.03 139.755H154.857L153.406 143.869C153.355 144.023 153.273 144.164 153.165 144.284C153.059 144.41 152.926 144.511 152.777 144.579C152.54 144.678 152.281 144.711 152.028 144.673C151.948 144.66 151.87 144.639 151.795 144.61L151.799 143.85Z" fill="#E6D500"/>
<path d="M160.857 143.179H159.972V141.265C159.988 141.056 159.939 140.848 159.833 140.668C159.788 140.608 159.729 140.56 159.661 140.527C159.594 140.495 159.519 140.479 159.445 140.481C159.26 140.484 159.083 140.554 158.948 140.679C158.792 140.814 158.677 140.99 158.618 141.188V143.179H157.729V141.265C157.745 141.056 157.696 140.848 157.589 140.668C157.545 140.607 157.486 140.558 157.419 140.526C157.351 140.493 157.276 140.478 157.201 140.481C157.018 140.485 156.842 140.554 156.704 140.675C156.542 140.806 156.425 140.984 156.367 141.184V143.179H155.49V139.755H156.289V140.392C156.416 140.176 156.6 139.999 156.821 139.88C157.053 139.759 157.312 139.698 157.574 139.701C157.816 139.686 158.055 139.761 158.245 139.911C158.402 140.044 158.51 140.226 158.552 140.427C158.68 140.202 158.866 140.015 159.091 139.887C159.318 139.761 159.573 139.696 159.833 139.701C160.012 139.694 160.19 139.734 160.349 139.818C160.48 139.888 160.589 139.995 160.663 140.124C160.74 140.257 160.793 140.403 160.818 140.555C160.846 140.715 160.86 140.878 160.861 141.04L160.857 143.179Z" fill="#E6D500"/>
<path d="M163.365 143.244C163.107 143.248 162.851 143.201 162.612 143.105C162.4 143.02 162.207 142.892 162.046 142.73C161.886 142.568 161.76 142.374 161.676 142.162C161.592 141.948 161.55 141.72 161.552 141.49C161.549 141.179 161.626 140.872 161.773 140.598C161.917 140.326 162.134 140.101 162.398 139.945C162.694 139.776 163.031 139.691 163.373 139.701C163.71 139.692 164.043 139.776 164.335 139.945C164.595 140.102 164.809 140.324 164.956 140.59C165.1 140.857 165.175 141.156 165.173 141.459C165.173 141.517 165.173 141.568 165.173 141.618C165.173 141.669 165.173 141.711 165.173 141.746H162.507C162.514 141.911 162.565 142.07 162.654 142.208C162.738 142.333 162.851 142.434 162.984 142.503C163.117 142.569 163.263 142.604 163.411 142.604C163.588 142.605 163.761 142.561 163.916 142.476C164.06 142.403 164.173 142.28 164.234 142.131L164.987 142.34C164.906 142.52 164.787 142.681 164.638 142.81C164.477 142.95 164.292 143.058 164.091 143.128C163.858 143.211 163.612 143.25 163.365 143.244ZM162.46 141.199H164.269C164.256 141.041 164.205 140.888 164.122 140.753C164.041 140.628 163.93 140.525 163.799 140.454C163.663 140.383 163.511 140.347 163.357 140.349C163.209 140.344 163.063 140.377 162.932 140.445C162.801 140.513 162.689 140.614 162.608 140.737C162.522 140.877 162.471 141.035 162.46 141.199Z" fill="#E6D500"/>
<path d="M169.059 143.179H168.174V141.265C168.189 141.056 168.141 140.848 168.034 140.667C167.986 140.606 167.924 140.556 167.853 140.524C167.782 140.492 167.704 140.477 167.626 140.481C167.502 140.484 167.38 140.514 167.269 140.57C167.145 140.631 167.035 140.716 166.943 140.819C166.848 140.926 166.773 141.05 166.722 141.184V143.179H165.845V139.755H166.644V140.392C166.729 140.24 166.844 140.108 166.982 140.004C167.125 139.903 167.282 139.825 167.448 139.771C167.631 139.712 167.822 139.684 168.014 139.686C168.199 139.678 168.382 139.718 168.546 139.802C168.68 139.871 168.79 139.978 168.864 140.109C168.94 140.244 168.991 140.391 169.016 140.543C169.044 140.702 169.058 140.863 169.059 141.025V143.179Z" fill="#E6D500"/>
<path d="M172.016 143.008L171.74 143.117C171.629 143.154 171.517 143.185 171.402 143.21C171.282 143.233 171.16 143.245 171.038 143.245C170.882 143.247 170.727 143.218 170.583 143.159C170.45 143.104 170.336 143.009 170.257 142.888C170.17 142.741 170.126 142.573 170.133 142.402V140.423H169.687V139.752H170.133V138.63H171.026V139.752H171.752V140.423H171.026V142.096C171.021 142.141 171.027 142.187 171.042 142.23C171.057 142.273 171.081 142.312 171.113 142.345C171.145 142.377 171.183 142.403 171.226 142.419C171.269 142.435 171.314 142.441 171.36 142.437C171.45 142.436 171.539 142.419 171.624 142.387C171.713 142.352 171.787 142.325 171.841 142.298L172.016 143.008Z" fill="#E6D500"/>
<path d="M173.875 143.244C173.585 143.246 173.298 143.197 173.025 143.101C172.766 143.011 172.531 142.863 172.338 142.67L172.66 142.095C172.84 142.249 173.043 142.374 173.262 142.464C173.445 142.542 173.641 142.583 173.84 142.584C173.982 142.591 174.124 142.56 174.251 142.495C174.3 142.47 174.341 142.432 174.369 142.384C174.396 142.337 174.409 142.282 174.407 142.227C174.409 142.19 174.403 142.153 174.388 142.118C174.373 142.084 174.35 142.053 174.321 142.029C174.248 141.975 174.165 141.935 174.077 141.913L173.689 141.797C173.471 141.733 173.258 141.654 173.052 141.56C172.899 141.495 172.766 141.392 172.664 141.261C172.571 141.127 172.525 140.966 172.532 140.803C172.527 140.595 172.588 140.391 172.707 140.221C172.831 140.049 173 139.915 173.196 139.833C173.428 139.738 173.678 139.692 173.929 139.697C174.167 139.695 174.403 139.734 174.628 139.813C174.854 139.897 175.059 140.03 175.229 140.201L174.868 140.768C174.718 140.643 174.551 140.54 174.372 140.461C174.219 140.399 174.055 140.366 173.89 140.364C173.802 140.364 173.715 140.376 173.63 140.399C173.556 140.417 173.488 140.453 173.432 140.504C173.406 140.533 173.385 140.566 173.372 140.603C173.358 140.64 173.353 140.679 173.355 140.718C173.353 140.752 173.359 140.786 173.371 140.818C173.383 140.85 173.401 140.879 173.425 140.904C173.485 140.962 173.558 141.004 173.638 141.028L173.984 141.145C174.221 141.21 174.454 141.289 174.682 141.381C174.848 141.446 174.996 141.55 175.113 141.684C175.22 141.825 175.274 142 175.264 142.177C175.266 142.328 175.232 142.477 175.165 142.612C175.097 142.747 174.998 142.864 174.876 142.953C174.584 143.159 174.232 143.261 173.875 143.244Z" fill="#E6D500"/>
</svg>
